<svg viewBox="-810.5 -425 1621 850" width="1621" height="850" style="background-color: rgb(255, 255, 255);" xmlns="http://www.w3.org/2000/svg"><path d="M-230.82826378306257,-26.675830235554816L-273.1370786902846,-26.291604685446543M-273.1370786902846,-26.291604685446543L-273.1370786902846,35.003719420962334M-273.1370786902846,-26.291604685446543L-279.6797192498236,-31.485087317686684M-230.82826378306257,-26.675830235554816L-230.82826378306257,34.619493870854065M-230.82826378306257,-26.675830235554816L-237.37090434260156,-31.869312867794957" style="fill:none;stroke:rgb(0,0,0);stroke-width:1;stroke-linecap:round"></path><path d="M-230.82826378306257,-26.675830235554816L-230.82826378306257,34.619493870854065L-273.1370786902846,-26.291604685446543zM-230.82826378306257,34.619493870854065L-273.1370786902846,35.00371942096234L-273.1370786902846,-26.291604685446543z" style="fill:rgb(238,238,238); fill-opacity: 0.4"></path><path d="M-230.82826378306257,34.619493870854065L-273.1370786902846,35.003719420962334M-273.1370786902846,35.003719420962334L-279.6797192498236,29.810236788722197M-164.10396391424015,-27.281783885613486L-206.4127788214622,-26.897558335505217M-206.4127788214622,-26.897558335505217L-206.4127788214622,34.39776577090367M-206.4127788214622,-26.897558335505217L-212.9554193810012,-32.09104096774536M-230.82826378306257,34.619493870854065L-237.37090434260156,29.426011238613924M-164.10396391424015,-27.281783885613486L-164.10396391424015,34.0135402207954M-164.10396391424015,-27.281783885613486L-170.64660447377918,-32.475266517853626" style="fill:none;stroke:rgb(0,0,0);stroke-width:1;stroke-linecap:round"></path><path d="M-164.10396391424013,-27.281783885613486L-164.10396391424013,34.0135402207954L-206.41277882146215,-26.89755833550521zM-164.10396391424013,34.0135402207954L-206.41277882146215,34.397765770903675L-206.41277882146215,-26.89755833550521z" style="fill:rgb(238,238,238); fill-opacity: 0.4"></path><path d="M-164.10396391424015,34.0135402207954L-206.4127788214622,34.39776577090367M-206.4127788214622,34.39776577090367L-212.9554193810012,29.204283138663524M-88.91790305477492,-27.96458262761444L-139.68847721793384,-27.50351200131753M-139.68847721793384,-27.50351200131753L-139.68847721793384,33.791812105091346M-139.68847721793384,-27.50351200131753L-146.23111777747286,-32.69699463355767M-232.33807451815574,-17.278842761130758L-274.64688942537776,-16.89461721102248M-274.64688942537776,-16.89461721102248L-274.64688942537776,-13.224703946112687M-274.64688942537776,-16.89461721102248L-275.038614629984,-17.20556476013812M-232.33807451815574,-13.608929496220963L-274.64688942537776,-13.224703946112687M-274.64688942537776,-13.224703946112687L-275.038614629984,-13.535651495228329" style="fill:none;stroke:rgb(0,0,0);stroke-width:1;stroke-linecap:round"></path><path d="M-274.64688942537776,-16.89461721102248L-274.64688942537776,-13.224703946112685L-275.03861462998407,-17.20556476013812zM-232.33807451815574,-13.608929496220961L-274.64688942537776,-13.224703946112685L-274.64688942537776,-16.89461721102248z" style="fill:rgb(153,221,255); fill-opacity: 0.4"></path><path d="M-164.10396391424015,34.0135402207954L-170.64660447377918,28.820057588555255" style="fill:none;stroke:rgb(0,0,0);stroke-width:1;stroke-linecap:round"></path><path d="M-274.64688942537776,-13.224703946112685L-275.03861462998407,-13.535651495228326L-275.03861462998407,-17.20556476013812zM-275.03861462998407,-13.535651495228326L-274.64688942537776,-13.224703946112685L-232.33807451815574,-13.608929496220961zM-232.33807451815574,-17.278842761130758L-232.33807451815574,-13.608929496220961L-274.64688942537776,-16.89461721102248z" style="fill:rgb(153,221,255); fill-opacity: 0.4"></path><path d="M-275.038614629984,-17.20556476013812L-275.038614629984,-13.535651495228329M-275.038614629984,-17.20556476013812L-232.72979972276195,-17.589790310246396" style="fill:none;stroke:rgb(0,0,0);stroke-width:1;stroke-linecap:round"></path><path d="M-275.03861462998407,-17.20556476013812L-232.729799722762,-17.589790310246396L-274.64688942537776,-16.89461721102248z" style="fill:rgb(153,221,255); fill-opacity: 0.4"></path><path d="M-275.038614629984,-13.535651495228329L-232.72979972276195,-13.919877045336605" style="fill:none;stroke:rgb(0,0,0);stroke-width:1;stroke-linecap:round"></path><path d="M-232.729799722762,-17.589790310246396L-232.33807451815574,-17.278842761130758L-274.64688942537776,-16.89461721102248z" style="fill:rgb(153,221,255); fill-opacity: 0.4"></path><path d="M-88.91790305477492,33.330741478794444L-139.68847721793384,33.791812105091346M-139.68847721793384,33.791812105091346L-146.23111777747286,28.59832947285121M-232.33807451815574,-17.278842761130758L-232.33807451815574,-13.608929496220963M-232.33807451815574,-17.278842761130758L-232.72979972276195,-17.589790310246396M-232.33806757917296,-17.278841880919764L-232.33806757917296,-13.608929782643978M-232.33806757917296,-17.278841880919764L-232.7297927837792,-17.589789430035406M-232.33806757917296,-17.278841880919764L-208.11844393939688,-15.8210883012357" style="fill:none;stroke:rgb(0,0,0);stroke-width:1;stroke-linecap:round"></path><path d="M-88.91790305477492,33.330741478794444L-139.6884772179338,33.791812105091346L-139.6884772179338,-27.50351200131753zM-88.91790305477492,-27.96458262761444L-88.91790305477492,33.330741478794444L-139.6884772179338,-27.50351200131753z" style="fill:rgb(238,238,238); fill-opacity: 0.4"></path><path d="M-88.91790305477492,-27.96458262761444L-88.91790305477492,33.330741478794444M-88.91790305477492,-27.96458262761444L-95.46054361431398,-33.15806525985458M-232.33807451815574,-13.608929496220963L-232.72979972276195,-13.919877045336605M-232.33806757917296,-13.608929782643978L-232.7297927837792,-13.919877331759622M-232.33806757917296,-13.608929782643978L-208.11844393939688,-15.8210883012357" style="fill:none;stroke:rgb(0,0,0);stroke-width:1;stroke-linecap:round"></path><path d="M-275.03861462998407,-17.20556476013812L-275.03861462998407,-13.535651495228326L-232.729799722762,-17.589790310246396zM-232.729799722762,-13.919877045336602L-275.03861462998407,-13.535651495228326L-232.33807451815574,-13.608929496220961z" style="fill:rgb(153,221,255); fill-opacity: 0.4"></path><path d="M-232.33807515839513,-17.278842755316454L-232.33807515839513,-13.608929490406656L-232.7298003630014,-13.919877039522298z" style="fill:rgb(255,187,187); fill-opacity: 0.4"></path><path d="M-232.729799722762,-13.919877045336602L-232.33807451815574,-13.608929496220961L-232.33807451815574,-17.278842761130758z" style="fill:rgb(153,221,255); fill-opacity: 0.4"></path><path d="M-232.33807515839513,-13.608929490406656L-232.33807515839513,-17.278842755316454L-208.11845151861908,-15.821088008998377z" style="fill:rgb(255,187,187); fill-opacity: 0.4"></path><path d="M-275.03861462998407,-13.535651495228326L-232.729799722762,-13.919877045336602L-232.729799722762,-17.589790310246396z" style="fill:rgb(153,221,255); fill-opacity: 0.4"></path><path d="M-232.33807515839513,-17.278842755316454L-232.7298003630014,-13.919877039522298L-232.7298003630014,-17.589790304432093z" style="fill:rgb(255,187,187); fill-opacity: 0.4"></path><path d="M-232.729799722762,-17.589790310246396L-232.729799722762,-13.919877045336602L-232.33807451815574,-17.278842761130758z" style="fill:rgb(153,221,255); fill-opacity: 0.4"></path><path d="M-273.1370786902846,-26.291604685446543L-273.1370786902846,35.00371942096234L-279.6797192498237,-31.48508731768668z" style="fill:rgb(238,238,238); fill-opacity: 0.4"></path><path d="M-232.33807515839513,-17.278842755316454L-232.7298003630014,-17.589790304432093L-208.11845151861908,-15.821088008998377zM-232.7298003630014,-13.919877039522298L-232.33807515839513,-13.608929490406656L-208.11845151861908,-15.821088008998377z" style="fill:rgb(255,187,187); fill-opacity: 0.4"></path><path d="M-232.72979972276195,-17.589790310246396L-232.72979972276195,-13.919877045336605M-232.7297927837792,-13.919877331759622L-232.7297927837792,-17.589789430035406M-232.7297927837792,-17.589789430035406L-208.11844393939688,-15.8210883012357" style="fill:none;stroke:rgb(0,0,0);stroke-width:1;stroke-linecap:round"></path><path d="M-237.37090434260162,-31.869312867794957L-230.82826378306257,-26.675830235554816L-273.1370786902846,-26.291604685446543z" style="fill:rgb(238,238,238); fill-opacity: 0.4"></path><path d="M-232.7297927837792,-13.919877331759622L-208.11844393939688,-15.8210883012357" style="fill:none;stroke:rgb(0,0,0);stroke-width:1;stroke-linecap:round"></path><path d="M-232.7298003630014,-17.589790304432093L-232.7298003630014,-13.919877039522298L-208.11845151861908,-15.821088008998377z" style="fill:rgb(255,187,187); fill-opacity: 0.4"></path><path d="M-88.91790305477492,33.330741478794444L-95.46054361431398,28.1372588465543M-14.18437922598885,-24.76695148164598L-64.95495338914775,-24.305880855349073M-64.95495338914775,-24.305880855349073L-64.95495338914775,28.510141952886855M-64.95495338914775,-24.305880855349073L-70.59251641791674,-28.780921996862382" style="fill:none;stroke:rgb(0,0,0);stroke-width:1;stroke-linecap:round"></path><path d="M-279.6797192498237,29.8102367887222L-273.1370786902846,35.00371942096234L-230.82826378306257,34.619493870854065zM-237.37090434260162,29.426011238613924L-230.82826378306257,34.619493870854065L-230.82826378306257,-26.675830235554816zM-206.41277882146215,-26.89755833550521L-206.41277882146215,34.397765770903675L-212.9554193810012,-32.09104096774535zM-170.64660447377918,-32.475266517853626L-164.10396391424013,-27.281783885613486L-206.41277882146215,-26.89755833550521z" style="fill:rgb(238,238,238); fill-opacity: 0.4"></path><path d="M-14.18437922598885,28.049071326589946L-64.95495338914775,28.510141952886855M-64.95495338914775,28.510141952886855L-70.59251641791674,24.035100811373546" style="fill:none;stroke:rgb(0,0,0);stroke-width:1;stroke-linecap:round"></path><path d="M-14.18437922598885,28.049071326589946L-64.95495338914776,28.510141952886855L-64.95495338914776,-24.305880855349073zM-14.18437922598885,-24.76695148164598L-14.18437922598885,28.049071326589946L-64.95495338914776,-24.305880855349073z" style="fill:rgb(238,238,238); fill-opacity: 0.4"></path><path d="M-14.18437922598885,-24.76695148164598L-14.18437922598885,28.049071326589946M-14.18437922598885,-24.76695148164598L-19.82194225475784,-29.241992623159287" style="fill:none;stroke:rgb(0,0,0);stroke-width:1;stroke-linecap:round"></path><path d="M-212.9554193810012,29.20428313866353L-206.41277882146215,34.397765770903675L-164.10396391424013,34.0135402207954z" style="fill:rgb(238,238,238); fill-opacity: 0.4"></path><path d="M69.46344668726722,-25.526595352488503L10.231108611287022,-24.98867960771169M10.231108611287022,-24.98867960771169L10.231108611287022,27.82734320052424M10.231108611287022,-24.98867960771169L4.593545582518037,-29.463720749224994" style="fill:none;stroke:rgb(0,0,0);stroke-width:1;stroke-linecap:round"></path><path d="M-170.64660447377918,28.820057588555255L-164.10396391424013,34.0135402207954L-164.10396391424013,-27.281783885613486zM-139.6884772179338,-27.50351200131753L-139.6884772179338,33.791812105091346L-146.23111777747286,-32.69699463355767z" style="fill:rgb(238,238,238); fill-opacity: 0.4"></path><path d="M-14.18437922598885,28.049071326589946L-19.82194225475784,23.574030185076637" style="fill:none;stroke:rgb(0,0,0);stroke-width:1;stroke-linecap:round"></path><path d="M-95.46054361431396,-33.15806525985458L-88.91790305477492,-27.96458262761444L-139.6884772179338,-27.50351200131753z" style="fill:rgb(238,238,238); fill-opacity: 0.4"></path><path d="M69.46344668726722,27.289427455747425L10.231108611287022,27.82734320052424M10.231108611287022,27.82734320052424L4.593545582518037,23.35230205901093" style="fill:none;stroke:rgb(0,0,0);stroke-width:1;stroke-linecap:round"></path><path d="M69.46344668726722,27.28942745574742L10.231108611287024,27.82734320052424L10.231108611287024,-24.98867960771169zM69.46344668726722,-25.526595352488503L69.46344668726722,27.28942745574742L10.231108611287024,-24.98867960771169z" style="fill:rgb(238,238,238); fill-opacity: 0.4"></path><path d="M-15.302144062129663,15.210643992733063L-66.07271822528857,15.671714619029967M-66.07271822528857,15.671714619029967L-66.07271822528857,19.341627883939765M-66.07271822528857,15.671714619029967L-66.46444342989481,15.360767069914326M-15.302144062129663,18.88055725764286L-66.07271822528857,19.341627883939765M-66.07271822528857,19.341627883939765L-66.46444342989481,19.030680334824122M69.46344668726722,-25.526595352488503L69.46344668726722,27.289427455747425M69.46344668726722,-25.526595352488503L63.82588365849823,-30.001636494001808" style="fill:none;stroke:rgb(0,0,0);stroke-width:1;stroke-linecap:round"></path><path d="M-146.23111777747286,28.59832947285121L-139.6884772179338,33.791812105091346L-88.91790305477492,33.330741478794444z" style="fill:rgb(238,238,238); fill-opacity: 0.4"></path><path d="M-66.07271822528857,15.67171461902997L-66.07271822528857,19.341627883939765L-66.46444342989481,15.36076706991433z" style="fill:rgb(153,221,255); fill-opacity: 0.4"></path><path d="M-279.6797192498237,-31.48508731768668L-237.37090434260162,-31.869312867794957L-273.1370786902846,-26.291604685446543z" style="fill:rgb(238,238,238); fill-opacity: 0.4"></path><path d="M-15.302144062129663,18.880557257642856L-66.07271822528857,19.341627883939765L-66.07271822528857,15.67171461902997zM-66.07271822528857,19.341627883939765L-66.46444342989481,19.030680334824122L-66.46444342989481,15.36076706991433z" style="fill:rgb(153,221,255); fill-opacity: 0.4"></path><path d="M-95.46054361431396,28.1372588465543L-88.91790305477492,33.330741478794444L-88.91790305477492,-27.96458262761444z" style="fill:rgb(238,238,238); fill-opacity: 0.4"></path><path d="M-66.46444342989481,19.030680334824122L-66.07271822528857,19.341627883939765L-15.302144062129663,18.880557257642856z" style="fill:rgb(153,221,255); fill-opacity: 0.4"></path><path d="M-273.1370786902846,35.00371942096234L-279.6797192498237,29.8102367887222L-279.6797192498237,-31.48508731768668z" style="fill:rgb(238,238,238); fill-opacity: 0.4"></path><path d="M-66.46444342989481,15.360767069914326L-66.46444342989481,19.030680334824122M-66.46444342989481,15.360767069914326L-15.693869266735911,14.899696443617422" style="fill:none;stroke:rgb(0,0,0);stroke-width:1;stroke-linecap:round"></path><path d="M-15.302144062129663,15.210643992733063L-15.302144062129663,18.880557257642856L-66.07271822528857,15.67171461902997z" style="fill:rgb(153,221,255); fill-opacity: 0.4"></path><path d="M-66.46444342989481,19.030680334824122L-15.693869266735911,18.569609708527217" style="fill:none;stroke:rgb(0,0,0);stroke-width:1;stroke-linecap:round"></path><path d="M-66.46444342989481,15.36076706991433L-15.693869266735911,14.899696443617422L-66.07271822528857,15.67171461902997zM-15.693869266735911,14.899696443617422L-15.302144062129663,15.210643992733063L-66.07271822528857,15.67171461902997z" style="fill:rgb(153,221,255); fill-opacity: 0.4"></path><path d="M69.46344668726722,27.289427455747425L63.82588365849823,22.814386314234113" style="fill:none;stroke:rgb(0,0,0);stroke-width:1;stroke-linecap:round"></path><path d="M-64.95495338914776,-24.305880855349073L-64.95495338914776,28.510141952886855L-70.59251641791674,-28.780921996862382z" style="fill:rgb(238,238,238); fill-opacity: 0.4"></path><path d="M-15.302144062129663,15.210643992733063L-15.302144062129663,18.88055725764286M-15.302144062129663,15.210643992733063L-15.693869266735911,14.899696443617422M-15.302143182379883,15.21064448465268L-15.302143182379883,18.880557749562477M-15.302143182379883,15.21064448465268L-15.693868386986127,14.899696935537039M-15.302143182379883,15.21064448465268L8.917480457396165,16.668399230970756M-92.0296704853803,5.337909314581965L-142.8002446485392,5.79897994087887M-142.8002446485392,5.79897994087887L-142.8002446485392,9.468893205788664M-142.8002446485392,5.79897994087887L-143.19196985314545,5.488032391763229" style="fill:none;stroke:rgb(0,0,0);stroke-width:1;stroke-linecap:round"></path><path d="M-66.46444342989481,15.36076706991433L-66.46444342989481,19.030680334824122L-15.693869266735911,14.899696443617422z" style="fill:rgb(153,221,255); fill-opacity: 0.4"></path><path d="M-15.302144062129663,18.88055725764286L-15.693869266735911,18.569609708527217M-15.302143182379883,18.880557749562477L-15.693868386986127,18.569610200446835M-15.302143182379883,18.880557749562477L8.917480457396165,16.668399230970756M-92.0296704853803,9.007822579491759L-142.8002446485392,9.468893205788664M-142.8002446485392,9.468893205788664L-143.19196985314545,9.157945656673023" style="fill:none;stroke:rgb(0,0,0);stroke-width:1;stroke-linecap:round"></path><path d="M-237.37090434260162,-31.869312867794957L-237.37090434260162,29.426011238613924L-230.82826378306257,-26.675830235554816z" style="fill:rgb(238,238,238); fill-opacity: 0.4"></path><path d="M-15.693869266735911,18.569609708527214L-66.46444342989481,19.030680334824122L-15.302144062129663,18.880557257642856zM-15.693869266735911,18.569609708527214L-15.302144062129663,18.880557257642856L-15.302144062129663,15.210643992733063z" style="fill:rgb(153,221,255); fill-opacity: 0.4"></path><path d="M-15.302142967663151,15.210643982793718L-15.302142967663151,18.88055724770351L-15.693868172269397,18.56960969858787z" style="fill:rgb(255,187,187); fill-opacity: 0.4"></path><path d="M-142.8002446485392,5.798979940878871L-142.8002446485392,9.468893205788664L-143.19196985314545,5.488032391763229z" style="fill:rgb(153,221,255); fill-opacity: 0.4"></path><path d="M-15.302142967663151,18.88055724770351L-15.302142967663151,15.210643982793718L8.917480672112898,16.66839872911179z" style="fill:rgb(255,187,187); fill-opacity: 0.4"></path><path d="M-19.82194225475784,-29.241992623159287L-14.18437922598885,-24.76695148164598L-64.95495338914776,-24.305880855349073z" style="fill:rgb(238,238,238); fill-opacity: 0.4"></path><path d="M-66.46444342989481,19.030680334824122L-15.693869266735911,18.569609708527214L-15.693869266735911,14.899696443617422zM-92.0296704853803,9.007822579491759L-142.8002446485392,9.468893205788664L-142.8002446485392,5.798979940878871z" style="fill:rgb(153,221,255); fill-opacity: 0.4"></path><path d="M152.64996984242117,-22.330664910986165L93.41763176644098,-21.79274916620935M93.41763176644098,-21.79274916620935L93.41763176644098,22.37977094048705M93.41763176644098,-21.79274916620935L88.70267306640356,-25.535436220088876" style="fill:none;stroke:rgb(0,0,0);stroke-width:1;stroke-linecap:round"></path><path d="M-15.693869266735911,14.899696443617422L-15.693869266735911,18.569609708527214L-15.302144062129663,15.210643992733063z" style="fill:rgb(153,221,255); fill-opacity: 0.4"></path><path d="M-15.302142967663151,15.210643982793718L-15.693868172269397,18.56960969858787L-15.693868172269397,14.899696433678077z" style="fill:rgb(255,187,187); fill-opacity: 0.4"></path><path d="M-237.37090434260162,29.426011238613924L-279.6797192498237,29.8102367887222L-230.82826378306257,34.619493870854065z" style="fill:rgb(238,238,238); fill-opacity: 0.4"></path><path d="M-15.302142967663151,15.210643982793718L-15.693868172269397,14.899696433678077L8.917480672112898,16.66839872911179z" style="fill:rgb(255,187,187); fill-opacity: 0.4"></path><path d="M-142.8002446485392,9.468893205788664L-143.19196985314545,9.157945656673023L-143.19196985314545,5.488032391763229z" style="fill:rgb(153,221,255); fill-opacity: 0.4"></path><path d="M-15.693868172269397,18.56960969858787L-15.302142967663151,18.88055724770351L8.917480672112898,16.66839872911179z" style="fill:rgb(255,187,187); fill-opacity: 0.4"></path><path d="M-212.9554193810012,-32.09104096774535L-170.64660447377918,-32.475266517853626L-206.41277882146215,-26.89755833550521z" style="fill:rgb(238,238,238); fill-opacity: 0.4"></path><path d="M-143.19196985314545,9.157945656673023L-142.8002446485392,9.468893205788664L-92.0296704853803,9.007822579491759z" style="fill:rgb(153,221,255); fill-opacity: 0.4"></path><path d="M-15.693869266735911,14.899696443617422L-15.693869266735911,18.569609708527217M-15.693868386986127,18.569610200446835L-15.693868386986127,14.899696935537039M-15.693868386986127,14.899696935537039L8.917480457396165,16.668399230970756M-143.19196985314545,5.488032391763229L-143.19196985314545,9.157945656673023M-143.19196985314545,5.488032391763229L-92.42139568998654,5.026961765466324" style="fill:none;stroke:rgb(0,0,0);stroke-width:1;stroke-linecap:round"></path><path d="M-92.0296704853803,5.337909314581965L-92.0296704853803,9.007822579491759L-142.8002446485392,5.798979940878871z" style="fill:rgb(153,221,255); fill-opacity: 0.4"></path><path d="M-15.693868386986127,18.569610200446835L8.917480457396165,16.668399230970756" style="fill:none;stroke:rgb(0,0,0);stroke-width:1;stroke-linecap:round"></path><path d="M-15.693868172269397,14.899696433678077L-15.693868172269397,18.56960969858787L8.917480672112898,16.66839872911179z" style="fill:rgb(255,187,187); fill-opacity: 0.4"></path><path d="M-143.19196985314545,9.157945656673023L-92.42139568998654,8.696875030376118" style="fill:none;stroke:rgb(0,0,0);stroke-width:1;stroke-linecap:round"></path><path d="M-143.19196985314545,5.488032391763229L-92.42139568998654,5.026961765466324L-142.8002446485392,5.798979940878871z" style="fill:rgb(153,221,255); fill-opacity: 0.4"></path><path d="M-70.59251641791674,24.035100811373546L-64.95495338914776,28.510141952886855L-14.18437922598885,28.049071326589946z" style="fill:rgb(238,238,238); fill-opacity: 0.4"></path><path d="M-92.42139568998654,5.026961765466324L-92.0296704853803,5.337909314581965L-142.8002446485392,5.798979940878871z" style="fill:rgb(153,221,255); fill-opacity: 0.4"></path><path d="M-206.41277882146215,34.397765770903675L-212.9554193810012,29.20428313866353L-212.9554193810012,-32.09104096774535z" style="fill:rgb(238,238,238); fill-opacity: 0.4"></path><path d="M-92.0296704853803,5.337909314581965L-92.0296704853803,9.007822579491759M-92.0296704853803,5.337909314581965L-92.42139568998654,5.026961765466324M-92.0296673995988,5.3379094876958675L-92.0296673995988,9.00782275260566M-92.0296673995988,5.3379094876958675L-92.42139260420504,5.026961938580226M-92.0296673995988,5.3379094876958675L-67.80502084436905,5.836855159787897" style="fill:none;stroke:rgb(0,0,0);stroke-width:1;stroke-linecap:round"></path><path d="M-143.19196985314545,5.488032391763229L-143.19196985314545,9.157945656673023L-92.42139568998654,5.026961765466324z" style="fill:rgb(153,221,255); fill-opacity: 0.4"></path><path d="M-92.0296704853803,9.007822579491759L-92.42139568998654,8.696875030376118M-92.0296673995988,9.00782275260566L-92.42139260420504,8.696875203490018M-92.0296673995988,9.00782275260566L-67.80502084436905,5.836855159787897M152.64996984242117,21.841855195710234L93.41763176644098,22.37977094048705M93.41763176644098,22.37977094048705L88.70267306640356,18.63708388660752" style="fill:none;stroke:rgb(0,0,0);stroke-width:1;stroke-linecap:round"></path><path d="M-92.42139568998654,8.696875030376118L-143.19196985314545,9.157945656673023L-92.0296704853803,9.007822579491759z" style="fill:rgb(153,221,255); fill-opacity: 0.4"></path><path d="M-19.82194225475784,23.574030185076637L-14.18437922598885,28.049071326589946L-14.18437922598885,-24.76695148164598zM152.64996984242117,21.84185519571023L93.41763176644098,22.37977094048705L93.41763176644098,-21.79274916620935z" style="fill:rgb(238,238,238); fill-opacity: 0.4"></path><path d="M-92.42139568998654,8.696875030376118L-92.0296704853803,9.007822579491759L-92.0296704853803,5.337909314581965z" style="fill:rgb(153,221,255); fill-opacity: 0.4"></path><path d="M-92.02966939091378,5.337909304642618L-92.02966939091378,9.007822569552411L-92.42139459552003,8.69687502043677zM-92.02966939091378,9.007822569552411L-92.02966939091378,5.337909304642618L-67.80502283457369,5.836855376989973z" style="fill:rgb(255,187,187); fill-opacity: 0.4"></path><path d="M-168.72978515346958,8.08875370747166L-211.0386000606916,8.472979257579937M-211.0386000606916,8.472979257579937L-211.0386000606916,9.696283679216535M-211.0386000606916,8.472979257579937L-211.1691751288937,8.36933007454139M-168.72978515346958,9.312058129108259L-211.0386000606916,9.696283679216535M-211.0386000606916,9.696283679216535L-211.1691751288937,9.592634496177988" style="fill:none;stroke:rgb(0,0,0);stroke-width:1;stroke-linecap:round"></path><path d="M-143.19196985314545,9.157945656673023L-92.42139568998654,8.696875030376118L-92.42139568998654,5.026961765466324z" style="fill:rgb(153,221,255); fill-opacity: 0.4"></path><path d="M10.231108611287024,-24.98867960771169L10.231108611287024,27.82734320052424L4.59354558251804,-29.463720749224994zM152.64996984242117,-22.33066491098617L152.64996984242117,21.84185519571023L93.41763176644098,-21.79274916620935z" style="fill:rgb(238,238,238); fill-opacity: 0.4"></path><path d="M-211.03860006069158,8.472979257579935L-211.03860006069158,9.696283679216533L-211.16917512889364,8.369330074541388z" style="fill:rgb(153,221,255); fill-opacity: 0.4"></path><path d="M-170.64660447377918,-32.475266517853626L-170.64660447377918,28.820057588555255L-164.10396391424013,-27.281783885613486z" style="fill:rgb(238,238,238); fill-opacity: 0.4"></path><path d="M-92.42139568998654,5.026961765466324L-92.42139568998654,8.696875030376118L-92.0296704853803,5.337909314581965z" style="fill:rgb(153,221,255); fill-opacity: 0.4"></path><path d="M-92.02966939091378,5.337909304642618L-92.42139459552003,8.69687502043677L-92.42139459552003,5.026961755526977zM-92.02966939091378,5.337909304642618L-92.42139459552003,5.026961755526977L-67.80502283457369,5.836855376989973z" style="fill:rgb(255,187,187); fill-opacity: 0.4"></path><path d="M-211.03860006069158,9.696283679216533L-211.16917512889364,9.592634496177986L-211.16917512889364,8.369330074541388z" style="fill:rgb(153,221,255); fill-opacity: 0.4"></path><path d="M-92.42139459552003,8.69687502043677L-92.02966939091378,9.007822569552411L-67.80502283457369,5.836855376989973z" style="fill:rgb(255,187,187); fill-opacity: 0.4"></path><path d="M152.64996984242117,-22.330664910986165L152.64996984242117,21.841855195710234M152.64996984242117,-22.330664910986165L147.93501114238376,-26.073351964865694M-211.1691751288937,8.36933007454139L-211.1691751288937,9.592634496177988M-211.1691751288937,8.36933007454139L-168.86036022167164,7.985104524433114M-211.1691751288937,9.592634496177988L-168.86036022167164,9.208408946069712" style="fill:none;stroke:rgb(0,0,0);stroke-width:1;stroke-linecap:round"></path><path d="M-168.72978515346958,9.312058129108257L-211.03860006069158,9.696283679216533L-211.03860006069158,8.472979257579935z" style="fill:rgb(153,221,255); fill-opacity: 0.4"></path><path d="M-92.42139568998654,5.026961765466324L-92.42139568998654,8.696875030376118M-92.42139260420504,8.696875203490018L-92.42139260420504,5.026961938580226M-92.42139260420504,5.026961938580226L-67.80502084436905,5.836855159787897" style="fill:none;stroke:rgb(0,0,0);stroke-width:1;stroke-linecap:round"></path><path d="M-211.16917512889364,9.592634496177986L-211.03860006069158,9.696283679216533L-168.72978515346958,9.312058129108257z" style="fill:rgb(153,221,255); fill-opacity: 0.4"></path><path d="M-92.42139260420504,8.696875203490018L-67.80502084436905,5.836855159787897" style="fill:none;stroke:rgb(0,0,0);stroke-width:1;stroke-linecap:round"></path><path d="M-92.42139459552003,5.026961755526977L-92.42139459552003,8.69687502043677L-67.80502283457369,5.836855376989973z" style="fill:rgb(255,187,187); fill-opacity: 0.4"></path><path d="M-211.16917512889364,8.369330074541388L-168.86036022167164,7.985104524433112L-211.03860006069158,8.472979257579935z" style="fill:rgb(153,221,255); fill-opacity: 0.4"></path><path d="M-170.64660447377918,28.820057588555255L-212.9554193810012,29.20428313866353L-164.10396391424013,34.0135402207954z" style="fill:rgb(238,238,238); fill-opacity: 0.4"></path><path d="M-211.16917512889364,8.369330074541388L-211.16917512889364,9.592634496177986L-168.86036022167164,7.985104524433112z" style="fill:rgb(153,221,255); fill-opacity: 0.4"></path><path d="M63.82588365849823,-30.001636494001815L69.46344668726722,-25.526595352488503L10.231108611287024,-24.98867960771169z" style="fill:rgb(238,238,238); fill-opacity: 0.4"></path><path d="M-168.72978515346958,8.088753707471659L-168.72978515346958,9.312058129108257L-211.03860006069158,8.472979257579935z" style="fill:rgb(153,221,255); fill-opacity: 0.4"></path><path d="M-146.23111777747286,-32.69699463355767L-95.46054361431396,-33.15806525985458L-139.6884772179338,-27.50351200131753z" style="fill:rgb(238,238,238); fill-opacity: 0.4"></path><path d="M-168.86036022167164,7.985104524433112L-168.72978515346958,8.088753707471659L-211.03860006069158,8.472979257579935z" style="fill:rgb(153,221,255); fill-opacity: 0.4"></path><path d="M236.29779516194094,-23.0903087764367L177.06545708596076,-22.552393031659886M177.06545708596076,-22.552393031659886L177.06545708596076,21.620127075036514M177.06545708596076,-22.552393031659886L172.35049838592337,-26.29508008553941" style="fill:none;stroke:rgb(0,0,0);stroke-width:1;stroke-linecap:round"></path><path d="M-168.86036022167164,9.20840894606971L-211.16917512889364,9.592634496177986L-168.72978515346958,9.312058129108257zM-211.16917512889364,9.592634496177986L-168.86036022167164,9.20840894606971L-168.86036022167164,7.985104524433112z" style="fill:rgb(153,221,255); fill-opacity: 0.4"></path><path d="M-168.7297815567579,8.088753631773667L-168.7297815567579,9.312058053410265M-168.7297815567579,8.088753631773667L-168.86035662495996,7.985104448735119M-168.7297815567579,8.088753631773667L-144.37958284877973,8.426853139493689M-168.72978515346958,8.08875370747166L-168.72978515346958,9.312058129108259M-168.72978515346958,8.08875370747166L-168.86036022167164,7.985104524433114M-168.7297815567579,9.312058053410265L-168.86035662495996,9.208408870371718M-168.7297815567579,9.312058053410265L-144.37958284877973,8.426853139493689M-168.72978515346958,9.312058129108259L-168.86036022167164,9.208408946069712" style="fill:none;stroke:rgb(0,0,0);stroke-width:1;stroke-linecap:round"></path><path d="M-139.6884772179338,33.791812105091346L-146.23111777747286,28.59832947285121L-146.23111777747286,-32.69699463355767z" style="fill:rgb(238,238,238); fill-opacity: 0.4"></path><path d="M152.64996984242117,21.841855195710234L147.93501114238376,18.099168141830706" style="fill:none;stroke:rgb(0,0,0);stroke-width:1;stroke-linecap:round"></path><path d="M-168.72978579370894,8.088753713285964L-168.72978579370894,9.312058134922562L-168.86036086191103,9.208408951884014z" style="fill:rgb(255,187,187); fill-opacity: 0.4"></path><path d="M-168.86036022167164,9.20840894606971L-168.72978515346958,9.312058129108257L-168.72978515346958,8.088753707471659z" style="fill:rgb(153,221,255); fill-opacity: 0.4"></path><path d="M-168.72978579370894,8.088753713285964L-168.86036086191103,9.208408951884014L-168.86036086191103,7.985104530247416z" style="fill:rgb(255,187,187); fill-opacity: 0.4"></path><path d="M-168.86036022167164,7.985104524433112L-168.86036022167164,9.20840894606971L-168.72978515346958,8.088753707471659z" style="fill:rgb(153,221,255); fill-opacity: 0.4"></path><path d="M4.59354558251804,23.35230205901093L10.231108611287024,27.82734320052424L69.46344668726722,27.28942745574742z" style="fill:rgb(238,238,238); fill-opacity: 0.4"></path><path d="M-168.72978579370894,9.312058134922562L-168.72978579370894,8.088753713285964L-144.3795870857308,8.426853221005988z" style="fill:rgb(255,187,187); fill-opacity: 0.4"></path><path d="M-168.86035662495996,9.208408870371718L-168.86035662495996,7.985104448735119M-168.86035662495996,7.985104448735119L-144.37958284877973,8.426853139493689M-168.86036022167164,7.985104524433114L-168.86036022167164,9.208408946069712M-168.86035662495996,9.208408870371718L-144.37958284877973,8.426853139493689" style="fill:none;stroke:rgb(0,0,0);stroke-width:1;stroke-linecap:round"></path><path d="M-168.72978579370894,8.088753713285964L-168.86036086191103,7.985104530247416L-144.3795870857308,8.426853221005988zM-168.86036086191103,9.208408951884014L-168.72978579370894,9.312058134922562L-144.3795870857308,8.426853221005988zM-168.86036086191103,7.985104530247416L-168.86036086191103,9.208408951884014L-144.3795870857308,8.426853221005988z" style="fill:rgb(255,187,187); fill-opacity: 0.4"></path><path d="M-279.6797192498236,-31.485087317686684L-279.6797192498236,29.810236788722197M-279.6797192498236,-31.485087317686684L-237.37090434260156,-31.869312867794957M236.29779516194094,21.0822113302597L177.06545708596076,21.620127075036514M177.06545708596076,21.620127075036514L172.35049838592337,17.877440021156985" style="fill:none;stroke:rgb(0,0,0);stroke-width:1;stroke-linecap:round"></path><path d="M63.82588365849823,22.814386314234113L69.46344668726722,27.28942745574742L69.46344668726722,-25.526595352488503zM236.29779516194094,21.082211330259696L177.06545708596076,21.620127075036514L177.06545708596076,-22.552393031659886zM-95.46054361431396,-33.15806525985458L-95.46054361431396,28.1372588465543L-88.91790305477492,-27.96458262761444zM236.29779516194094,-23.090308776436704L236.29779516194094,21.082211330259696L177.06545708596076,-22.552393031659886zM-70.59251641791674,-28.780921996862382L-19.82194225475784,-29.241992623159287L-64.95495338914776,-24.305880855349073z" style="fill:rgb(238,238,238); fill-opacity: 0.4"></path><path d="M236.29779516194094,-23.0903087764367L236.29779516194094,21.0822113302597M236.29779516194094,-23.0903087764367L231.58283646190355,-26.83299583031623" style="fill:none;stroke:rgb(0,0,0);stroke-width:1;stroke-linecap:round"></path><path d="M-95.46054361431396,28.1372588465543L-146.23111777747286,28.59832947285121L-88.91790305477492,33.330741478794444zM-279.6797192498237,-31.48508731768668L-279.6797192498237,29.8102367887222L-237.37090434260162,-31.869312867794957zM93.41763176644098,-21.79274916620935L93.41763176644098,22.37977094048705L88.70267306640355,-25.535436220088876zM-64.95495338914776,28.510141952886855L-70.59251641791674,24.035100811373546L-70.59251641791674,-28.780921996862382z" style="fill:rgb(238,238,238); fill-opacity: 0.4"></path><path d="M-237.37090434260156,-31.869312867794957L-237.37090434260156,29.426011238613924M-279.6797192498236,29.810236788722197L-237.37090434260156,29.426011238613924M328.4073838005457,-23.92679775497516L260.7132818117442,-23.31203689171843M260.7132818117442,-23.31203689171843L260.7132818117442,20.860483214977968M260.7132818117442,-23.31203689171843L255.99832311170678,-27.05472394559796" style="fill:none;stroke:rgb(0,0,0);stroke-width:1;stroke-linecap:round"></path><path d="M147.93501114238376,-26.073351964865694L152.64996984242117,-22.33066491098617L93.41763176644098,-21.79274916620935z" style="fill:rgb(238,238,238); fill-opacity: 0.4"></path><path d="M236.29779516194094,21.0822113302597L231.58283646190355,17.33952427638017" style="fill:none;stroke:rgb(0,0,0);stroke-width:1;stroke-linecap:round"></path><path d="M-279.6797192498237,29.8102367887222L-237.37090434260162,29.426011238613924L-237.37090434260162,-31.869312867794957z" style="fill:rgb(238,238,238); fill-opacity: 0.4"></path><path d="M-212.9554193810012,-32.09104096774536L-212.9554193810012,29.204283138663524M-212.9554193810012,-32.09104096774536L-170.64660447377918,-32.475266517853626M66.04692105695992,-7.305585827230033L6.814582980979731,-6.767670082453216M6.814582980979731,-6.767670082453216L6.814582980979731,-3.0977568175434196M6.814582980979731,-6.767670082453216L6.422857776373484,-7.078617631568855" style="fill:none;stroke:rgb(0,0,0);stroke-width:1;stroke-linecap:round"></path><path d="M-19.82194225475784,-29.241992623159287L-19.82194225475784,23.574030185076637L-14.18437922598885,-24.76695148164598z" style="fill:rgb(238,238,238); fill-opacity: 0.4"></path><path d="M66.04692105695992,-3.635672562320237L6.814582980979731,-3.0977568175434196M6.814582980979731,-3.0977568175434196L6.422857776373484,-3.408704366659061" style="fill:none;stroke:rgb(0,0,0);stroke-width:1;stroke-linecap:round"></path><path d="M88.70267306640355,18.63708388660752L93.41763176644098,22.37977094048705L152.64996984242117,21.84185519571023z" style="fill:rgb(238,238,238); fill-opacity: 0.4"></path><path d="M6.814582980979728,-6.767670082453216L6.814582980979728,-3.0977568175434196L6.422857776373487,-7.078617631568857z" style="fill:rgb(153,221,255); fill-opacity: 0.4"></path><path d="M-19.82194225475784,23.574030185076637L-70.59251641791674,24.035100811373546L-14.18437922598885,28.049071326589946z" style="fill:rgb(238,238,238); fill-opacity: 0.4"></path><path d="M328.4073838005457,20.245722351721238L260.7132818117442,20.860483214977968M260.7132818117442,20.860483214977968L255.99832311170678,17.11779616109844" style="fill:none;stroke:rgb(0,0,0);stroke-width:1;stroke-linecap:round"></path><path d="M66.04692105695992,-3.635672562320237L6.814582980979728,-3.0977568175434196L6.814582980979728,-6.767670082453216zM6.814582980979728,-3.0977568175434196L6.422857776373487,-3.4087043666590615L6.422857776373487,-7.078617631568857z" style="fill:rgb(153,221,255); fill-opacity: 0.4"></path><path d="M328.40738380054574,20.245722351721238L260.7132818117442,20.860483214977965L260.7132818117442,-23.312036891718435zM-212.9554193810012,-32.09104096774535L-212.9554193810012,29.20428313866353L-170.64660447377918,-32.475266517853626zM147.93501114238376,18.099168141830702L152.64996984242117,21.84185519571023L152.64996984242117,-22.33066491098617zM4.59354558251804,-29.463720749224994L63.82588365849823,-30.001636494001815L10.231108611287024,-24.98867960771169z" style="fill:rgb(238,238,238); fill-opacity: 0.4"></path><path d="M6.422857776373487,-3.4087043666590615L6.814582980979728,-3.0977568175434196L66.04692105695992,-3.635672562320237z" style="fill:rgb(153,221,255); fill-opacity: 0.4"></path><path d="M6.422857776373484,-7.078617631568855L6.422857776373484,-3.408704366659061M6.422857776373484,-7.078617631568855L65.65519585235367,-7.616533376345673" style="fill:none;stroke:rgb(0,0,0);stroke-width:1;stroke-linecap:round"></path><path d="M328.40738380054574,-23.92679775497516L328.40738380054574,20.245722351721238L260.7132818117442,-23.312036891718435z" style="fill:rgb(238,238,238); fill-opacity: 0.4"></path><path d="M6.422857776373484,-3.408704366659061L65.65519585235367,-3.946620111435878M-170.64660447377918,-32.475266517853626L-170.64660447377918,28.820057588555255" style="fill:none;stroke:rgb(0,0,0);stroke-width:1;stroke-linecap:round"></path><path d="M66.04692105695992,-7.305585827230033L66.04692105695992,-3.635672562320237L6.814582980979728,-6.767670082453216z" style="fill:rgb(153,221,255); fill-opacity: 0.4"></path><path d="M10.231108611287024,27.82734320052424L4.59354558251804,23.35230205901093L4.59354558251804,-29.463720749224994z" style="fill:rgb(238,238,238); fill-opacity: 0.4"></path><path d="M6.422857776373487,-7.078617631568857L65.65519585235367,-7.616533376345673L6.814582980979728,-6.767670082453216z" style="fill:rgb(153,221,255); fill-opacity: 0.4"></path><path d="M177.06545708596076,-22.552393031659886L177.06545708596076,21.620127075036514L172.35049838592334,-26.29508008553941z" style="fill:rgb(238,238,238); fill-opacity: 0.4"></path><path d="M-212.9554193810012,29.204283138663524L-170.64660447377918,28.820057588555255M328.4073838005457,-23.92679775497516L328.4073838005457,20.245722351721238M328.4073838005457,-23.92679775497516L323.6924251005083,-27.669484808854687" style="fill:none;stroke:rgb(0,0,0);stroke-width:1;stroke-linecap:round"></path><path d="M65.65519585235367,-7.616533376345673L66.04692105695992,-7.305585827230033L6.814582980979728,-6.767670082453216zM6.422857776373487,-7.078617631568857L6.422857776373487,-3.4087043666590615L65.65519585235367,-7.616533376345673z" style="fill:rgb(153,221,255); fill-opacity: 0.4"></path><path d="M-212.9554193810012,29.20428313866353L-170.64660447377918,28.820057588555255L-170.64660447377918,-32.475266517853626z" style="fill:rgb(238,238,238); fill-opacity: 0.4"></path><path d="M66.04692038178281,-7.305586027922403L66.04692038178281,-3.635672471354105M66.04692038178281,-7.305586027922403L65.65519517717657,-7.616533577038044M66.04692038178281,-7.305586027922403L90.39642018708695,-5.149032556589392M66.04692105695992,-7.305585827230033L66.04692105695992,-3.635672562320237M66.04692105695992,-7.305585827230033L65.65519585235367,-7.616533376345673M66.04692038178281,-3.635672471354105L65.65519517717657,-3.946620020469746M66.04692038178281,-3.635672471354105L90.39642018708695,-5.149032556589392M66.04692105695992,-3.635672562320237L65.65519585235367,-3.946620111435878M-146.23111777747286,-32.69699463355767L-146.23111777747286,28.59832947285121M-146.23111777747286,-32.69699463355767L-95.46054361431398,-33.15806525985458" style="fill:none;stroke:rgb(0,0,0);stroke-width:1;stroke-linecap:round"></path><path d="M65.65519585235367,-3.946620111435878L6.422857776373487,-3.4087043666590615L66.04692105695992,-3.635672562320237z" style="fill:rgb(153,221,255); fill-opacity: 0.4"></path><path d="M234.54177121065118,1.1946405337954398L175.309433134671,1.7325562785722568M175.309433134671,1.7325562785722568L175.309433134671,2.955860700208855M175.309433134671,1.7325562785722568L175.1788580664689,1.6289070955337097M234.54177121065118,2.417944955432038L175.309433134671,2.955860700208855M175.309433134671,2.955860700208855L175.1788580664689,2.852211517170308" style="fill:none;stroke:rgb(0,0,0);stroke-width:1;stroke-linecap:round"></path><path d="M66.04692155769011,-3.6356725668675947L66.04692155769011,-7.305585831777391L90.39642137629527,-5.1490327139451875z" style="fill:rgb(255,187,187); fill-opacity: 0.4"></path><path d="M231.58283646190353,-26.83299583031623L236.29779516194094,-23.090308776436704L177.06545708596076,-22.552393031659886z" style="fill:rgb(238,238,238); fill-opacity: 0.4"></path><path d="M65.65519585235367,-3.946620111435878L66.04692105695992,-3.635672562320237L66.04692105695992,-7.305585827230033z" style="fill:rgb(153,221,255); fill-opacity: 0.4"></path><path d="M66.04692155769011,-7.305585831777391L66.04692155769011,-3.6356725668675947L65.65519635308387,-3.9466201159832366z" style="fill:rgb(255,187,187); fill-opacity: 0.4"></path><path d="M175.30943313467102,1.7325562785722561L175.30943313467102,2.9558607002088553L175.17885806646893,1.6289070955337093zM6.422857776373487,-3.4087043666590615L65.65519585235367,-3.946620111435878L65.65519585235367,-7.616533376345673zM175.30943313467102,2.9558607002088553L175.17885806646893,2.852211517170308L175.17885806646893,1.6289070955337093z" style="fill:rgb(153,221,255); fill-opacity: 0.4"></path><path d="M175.1788580664689,1.6289070955337097L175.1788580664689,2.852211517170308M175.1788580664689,1.6289070955337097L234.41119614244909,1.0909913507568927" style="fill:none;stroke:rgb(0,0,0);stroke-width:1;stroke-linecap:round"></path><path d="M66.04692155769011,-7.305585831777391L65.65519635308387,-7.616533380893032L90.39642137629527,-5.1490327139451875z" style="fill:rgb(255,187,187); fill-opacity: 0.4"></path><path d="M175.1788580664689,2.852211517170308L234.41119614244909,2.314295772393491M328.4073838005457,20.245722351721238L323.6924251005083,16.50303529784171" style="fill:none;stroke:rgb(0,0,0);stroke-width:1;stroke-linecap:round"></path><path d="M65.65519585235367,-7.616533376345673L65.65519585235367,-3.946620111435878L66.04692105695992,-7.305585827230033z" style="fill:rgb(153,221,255); fill-opacity: 0.4"></path><path d="M66.04692155769011,-7.305585831777391L65.65519635308387,-3.9466201159832366L65.65519635308387,-7.616533380893032zM65.65519635308387,-3.9466201159832366L66.04692155769011,-3.6356725668675947L90.39642137629527,-5.1490327139451875z" style="fill:rgb(255,187,187); fill-opacity: 0.4"></path><path d="M63.82588365849823,-30.001636494001815L63.82588365849823,22.814386314234113L69.46344668726722,-25.526595352488503z" style="fill:rgb(238,238,238); fill-opacity: 0.4"></path><path d="M149.61994699006962,-11.684926157872043L90.38760891408944,-11.147010413095225M90.38760891408944,-11.147010413095225L90.38760891408944,-7.477097148185429M90.38760891408944,-11.147010413095225L89.9958837094832,-11.457957962210866" style="fill:none;stroke:rgb(0,0,0);stroke-width:1;stroke-linecap:round"></path><path d="M172.35049838592334,17.877440021156985L177.06545708596076,21.620127075036514L236.29779516194094,21.082211330259696z" style="fill:rgb(238,238,238); fill-opacity: 0.4"></path><path d="M234.54177121065118,2.4179449554320387L175.30943313467102,2.9558607002088553L175.30943313467102,1.7325562785722561z" style="fill:rgb(153,221,255); fill-opacity: 0.4"></path><path d="M149.61994699006962,-8.015012892962247L90.38760891408944,-7.477097148185429M90.38760891408944,-7.477097148185429L89.9958837094832,-7.7880446973010695M65.65519517717657,-3.946620020469746L90.39642018708695,-5.149032556589392M65.65519517717657,-7.616533577038044L90.39642018708695,-5.149032556589392M65.65519517717657,-3.946620020469746L65.65519517717657,-7.616533577038044M65.65519585235367,-7.616533376345673L65.65519585235367,-3.946620111435878" style="fill:none;stroke:rgb(0,0,0);stroke-width:1;stroke-linecap:round"></path><path d="M65.65519635308387,-7.616533380893032L65.65519635308387,-3.9466201159832366L90.39642137629527,-5.1490327139451875z" style="fill:rgb(255,187,187); fill-opacity: 0.4"></path><path d="M175.17885806646893,2.852211517170308L175.30943313467102,2.9558607002088553L234.54177121065118,2.4179449554320387z" style="fill:rgb(153,221,255); fill-opacity: 0.4"></path><path d="M63.82588365849823,22.814386314234113L4.59354558251804,23.35230205901093L69.46344668726722,27.28942745574742zM-146.23111777747286,-32.69699463355767L-146.23111777747286,28.59832947285121L-95.46054361431396,-33.15806525985458z" style="fill:rgb(238,238,238); fill-opacity: 0.4"></path><path d="M175.17885806646893,1.6289070955337093L234.41119614244909,1.0909913507568922L175.30943313467102,1.7325562785722561zM90.38760891408944,-11.147010413095225L90.38760891408944,-7.477097148185429L89.99588370948318,-11.457957962210866zM175.17885806646893,1.6289070955337093L175.17885806646893,2.852211517170308L234.41119614244909,1.0909913507568922z" style="fill:rgb(153,221,255); fill-opacity: 0.4"></path><path d="M-70.59251641791674,-28.780921996862382L-70.59251641791674,24.035100811373546M-70.59251641791674,-28.780921996862382L-19.82194225475784,-29.241992623159287" style="fill:none;stroke:rgb(0,0,0);stroke-width:1;stroke-linecap:round"></path><path d="M88.70267306640355,-25.535436220088876L147.93501114238376,-26.073351964865694L93.41763176644098,-21.79274916620935z" style="fill:rgb(238,238,238); fill-opacity: 0.4"></path><path d="M149.61994699006965,-8.015012892962245L90.38760891408944,-7.477097148185429L90.38760891408944,-11.147010413095225zM234.54177121065118,1.194640533795439L234.54177121065118,2.4179449554320387L175.30943313467102,1.7325562785722561z" style="fill:rgb(153,221,255); fill-opacity: 0.4"></path><path d="M93.41763176644098,22.37977094048705L88.70267306640355,18.63708388660752L88.70267306640355,-25.535436220088876z" style="fill:rgb(238,238,238); fill-opacity: 0.4"></path><path d="M90.38760891408944,-7.477097148185429L89.99588370948318,-7.7880446973010695L89.99588370948318,-11.457957962210866z" style="fill:rgb(153,221,255); fill-opacity: 0.4"></path><path d="M-146.23111777747286,28.59832947285121L-95.46054361431398,28.1372588465543" style="fill:none;stroke:rgb(0,0,0);stroke-width:1;stroke-linecap:round"></path><path d="M234.41119614244909,1.0909913507568922L234.54177121065118,1.194640533795439L175.30943313467102,1.7325562785722561z" style="fill:rgb(153,221,255); fill-opacity: 0.4"></path><path d="M-95.46054361431398,-33.15806525985458L-95.46054361431398,28.1372588465543" style="fill:none;stroke:rgb(0,0,0);stroke-width:1;stroke-linecap:round"></path><path d="M231.58283646190353,17.339524276380168L236.29779516194094,21.082211330259696L236.29779516194094,-23.090308776436704z" style="fill:rgb(238,238,238); fill-opacity: 0.4"></path><path d="M420.04654490735754,-20.729469301677653L352.3524429185561,-20.114708438420923M352.3524429185561,-20.114708438420923L352.3524429185561,15.24333641958659M352.3524429185561,-20.114708438420923L348.5783380946318,-23.110555096499525" style="fill:none;stroke:rgb(0,0,0);stroke-width:1;stroke-linecap:round"></path><path d="M234.41119614244909,2.3142957723934914L175.17885806646893,2.852211517170308L234.54177121065118,2.4179449554320387zM175.17885806646893,2.852211517170308L234.41119614244909,2.3142957723934914L234.41119614244909,1.0909913507568922zM89.99588370948318,-7.7880446973010695L90.38760891408944,-7.477097148185429L149.61994699006965,-8.015012892962245z" style="fill:rgb(153,221,255); fill-opacity: 0.4"></path><path d="M89.9958837094832,-11.457957962210866L89.9958837094832,-7.7880446973010695M89.9958837094832,-11.457957962210866L149.22822178546338,-11.995873706987684M89.9958837094832,-7.7880446973010695L149.22822178546338,-8.325960442077887" style="fill:none;stroke:rgb(0,0,0);stroke-width:1;stroke-linecap:round"></path><path d="M149.61994699006965,-11.684926157872042L149.61994699006965,-8.015012892962245L90.38760891408944,-11.147010413095225z" style="fill:rgb(153,221,255); fill-opacity: 0.4"></path><path d="M260.7132818117442,-23.312036891718435L260.7132818117442,20.860483214977965L255.99832311170678,-27.05472394559796z" style="fill:rgb(238,238,238); fill-opacity: 0.4"></path><path d="M234.54177121065118,1.1946405337954398L234.54177121065118,2.417944955432038M234.54177121065118,1.1946405337954398L234.41119614244909,1.0909913507568927" style="fill:none;stroke:rgb(0,0,0);stroke-width:1;stroke-linecap:round"></path><path d="M-146.23111777747286,28.59832947285121L-95.46054361431396,28.1372588465543L-95.46054361431396,-33.15806525985458z" style="fill:rgb(238,238,238); fill-opacity: 0.4"></path><path d="M89.99588370948318,-11.457957962210866L149.22822178546338,-11.995873706987682L90.38760891408944,-11.147010413095225z" style="fill:rgb(153,221,255); fill-opacity: 0.4"></path><path d="M234.54177121065118,2.417944955432038L234.41119614244909,2.314295772393491M326.9724135848068,6.811542158137777L259.2783115960053,7.4263030213945065M259.2783115960053,7.4263030213945065L259.2783115960053,11.096216286304303M259.2783115960053,7.4263030213945065L258.8865863913991,7.115355472278865M326.9724135848068,10.481455423047572L259.2783115960053,11.096216286304303M259.2783115960053,11.096216286304303L258.8865863913991,10.78526873718866" style="fill:none;stroke:rgb(0,0,0);stroke-width:1;stroke-linecap:round"></path><path d="M-70.59251641791674,-28.780921996862382L-70.59251641791674,24.035100811373546L-19.82194225475784,-29.241992623159287z" style="fill:rgb(238,238,238); fill-opacity: 0.4"></path><path d="M234.41119614244909,2.3142957723934914L234.54177121065118,2.4179449554320387L234.54177121065118,1.194640533795439z" style="fill:rgb(153,221,255); fill-opacity: 0.4"></path><path d="M234.47648417728033,1.7544681485471068L234.47648417728033,1.7544681485471068L234.47648417728033,1.7544681485471068zM234.47648417728033,1.7544681485471068L234.47648417728033,1.7544681485471068L234.47648417728033,1.7544681485471068z" style="fill:rgb(255,187,187); fill-opacity: 0.4"></path><path d="M234.41119614244909,1.0909913507568922L234.41119614244909,2.3142957723934914L234.54177121065118,1.194640533795439zM149.22822178546338,-11.995873706987682L149.61994699006965,-11.684926157872042L90.38760891408944,-11.147010413095225z" style="fill:rgb(153,221,255); fill-opacity: 0.4"></path><path d="M234.41119614244909,1.0909913507568927L234.41119614244909,2.314295772393491" style="fill:none;stroke:rgb(0,0,0);stroke-width:1;stroke-linecap:round"></path><path d="M89.99588370948318,-11.457957962210866L89.99588370948318,-7.7880446973010695L149.22822178546338,-11.995873706987682zM259.2783115960053,7.4263030213945065L259.2783115960053,11.096216286304301L258.88658639139913,7.115355472278865z" style="fill:rgb(153,221,255); fill-opacity: 0.4"></path><path d="M234.47648417728033,1.7544681485471068L234.47648417728033,1.7544681485471068L258.89197041935955,1.5327400369681043zM234.47648417728033,1.7544681485471068L234.47648417728033,1.7544681485471068L258.89197041935955,1.5327400369681043zM234.47648417728033,1.7544681485471068L234.47648417728033,1.7544681485471068L258.89197041935955,1.5327400369681043zM234.47648417728033,1.7544681485471068L234.47648417728033,1.7544681485471068L258.89197041935955,1.5327400369681043z" style="fill:rgb(255,187,187); fill-opacity: 0.4"></path><path d="M420.04654490735754,14.62857555632986L352.3524429185561,15.24333641958659M352.3524429185561,15.24333641958659L348.5783380946318,12.247489761507989M-70.59251641791674,24.035100811373546L-19.82194225475784,23.574030185076637M149.61994699006962,-11.684926157872043L149.61994699006962,-8.015012892962247M149.61994699006962,-11.684926157872043L149.22822178546338,-11.995873706987684M149.61995461647186,-11.684926398259194L149.61995461647186,-8.015013133349397M149.61995461647186,-11.684926398259194L149.2282294118656,-11.995873947374834M149.61995461647186,-11.684926398259194L173.8395782562479,-10.227171651941118M149.61994699006962,-8.015012892962247L149.22822178546338,-8.325960442077887M149.61995461647186,-8.015013133349397L149.2282294118656,-8.32596068246504M149.61995461647186,-8.015013133349397L173.8395782562479,-10.227171651941118" style="fill:none;stroke:rgb(0,0,0);stroke-width:1;stroke-linecap:round"></path><path d="M149.22822178546338,-8.325960442077886L89.99588370948318,-7.7880446973010695L149.61994699006965,-8.015012892962245z" style="fill:rgb(153,221,255); fill-opacity: 0.4"></path><path d="M-19.82194225475784,-29.241992623159287L-19.82194225475784,23.574030185076637" style="fill:none;stroke:rgb(0,0,0);stroke-width:1;stroke-linecap:round"></path><path d="M326.9724135848069,10.481455423047572L259.2783115960053,11.096216286304301L259.2783115960053,7.4263030213945065zM259.2783115960053,11.096216286304301L258.88658639139913,10.78526873718866L258.88658639139913,7.115355472278865z" style="fill:rgb(153,221,255); fill-opacity: 0.4"></path><path d="M420.04654490735766,14.62857555632986L352.3524429185561,15.24333641958659L352.3524429185561,-20.114708438420923zM147.93501114238376,-26.073351964865694L147.93501114238376,18.099168141830702L152.64996984242117,-22.33066491098617z" style="fill:rgb(238,238,238); fill-opacity: 0.4"></path><path d="M149.22822178546338,-8.325960442077886L149.61994699006965,-8.015012892962245L149.61994699006965,-11.684926157872042z" style="fill:rgb(153,221,255); fill-opacity: 0.4"></path><path d="M149.61994749079986,-11.6849261624194L149.61994749079986,-8.015012897509603L149.22822228619358,-8.325960446625245z" style="fill:rgb(255,187,187); fill-opacity: 0.4"></path><path d="M147.93501114238376,18.099168141830702L88.70267306640355,18.63708388660752L152.64996984242117,21.84185519571023zM323.69242510050833,-27.669484808854687L328.40738380054574,-23.92679775497516L260.7132818117442,-23.312036891718435z" style="fill:rgb(238,238,238); fill-opacity: 0.4"></path><path d="M149.61994749079986,-8.015012897509603L149.61994749079986,-11.6849261624194L173.8395711305759,-10.227171416101326z" style="fill:rgb(255,187,187); fill-opacity: 0.4"></path><path d="M89.99588370948318,-7.7880446973010695L149.22822178546338,-8.325960442077886L149.22822178546338,-11.995873706987682z" style="fill:rgb(153,221,255); fill-opacity: 0.4"></path><path d="M-70.59251641791674,24.035100811373546L-19.82194225475784,23.574030185076637L-19.82194225475784,-29.241992623159287z" style="fill:rgb(238,238,238); fill-opacity: 0.4"></path><path d="M258.8865863913991,7.115355472278865L258.8865863913991,10.78526873718866M258.8865863913991,7.115355472278865L326.58068838020057,6.500594609022137" style="fill:none;stroke:rgb(0,0,0);stroke-width:1;stroke-linecap:round"></path><path d="M258.88658639139913,10.78526873718866L259.2783115960053,11.096216286304301L326.9724135848069,10.481455423047572z" style="fill:rgb(153,221,255); fill-opacity: 0.4"></path><path d="M258.8865863913991,10.78526873718866L326.58068838020057,10.170507873931932" style="fill:none;stroke:rgb(0,0,0);stroke-width:1;stroke-linecap:round"></path><path d="M149.22822178546338,-11.995873706987682L149.22822178546338,-8.325960442077886L149.61994699006965,-11.684926157872042z" style="fill:rgb(153,221,255); fill-opacity: 0.4"></path><path d="M149.61994749079986,-11.6849261624194L149.22822228619358,-8.325960446625245L149.22822228619358,-11.99587371153504z" style="fill:rgb(255,187,187); fill-opacity: 0.4"></path><path d="M420.04654490735766,-20.729469301677653L420.04654490735766,14.62857555632986L352.3524429185561,-20.114708438420923z" style="fill:rgb(238,238,238); fill-opacity: 0.4"></path><path d="M149.61994749079986,-11.6849261624194L149.22822228619358,-11.99587371153504L173.8395711305759,-10.227171416101326zM149.22822228619358,-8.325960446625245L149.61994749079986,-8.015012897509603L173.8395711305759,-10.227171416101326z" style="fill:rgb(255,187,187); fill-opacity: 0.4"></path><path d="M255.99832311170678,17.117796161098436L260.7132818117442,20.860483214977965L328.40738380054574,20.245722351721238z" style="fill:rgb(238,238,238); fill-opacity: 0.4"></path><path d="M258.88658639139913,7.115355472278865L326.5806883802006,6.500594609022137L259.2783115960053,7.4263030213945065zM326.9724135848069,6.811542158137777L326.9724135848069,10.481455423047572L259.2783115960053,7.4263030213945065z" style="fill:rgb(153,221,255); fill-opacity: 0.4"></path><path d="M4.593545582518037,-29.463720749224994L4.593545582518037,23.35230205901093M4.593545582518037,-29.463720749224994L63.82588365849823,-30.001636494001808M149.22822178546338,-11.995873706987684L149.22822178546338,-8.325960442077887M149.2282294118656,-8.32596068246504L149.2282294118656,-11.995873947374834M149.2282294118656,-11.995873947374834L173.8395782562479,-10.227171651941118M149.2282294118656,-8.32596068246504L173.8395782562479,-10.227171651941118M420.04654490735754,-20.729469301677653L420.04654490735754,14.62857555632986M420.04654490735754,-20.729469301677653L416.2724400834333,-23.725315959756255" style="fill:none;stroke:rgb(0,0,0);stroke-width:1;stroke-linecap:round"></path><path d="M149.22822228619358,-11.99587371153504L149.22822228619358,-8.325960446625245L173.8395711305759,-10.227171416101326z" style="fill:rgb(255,187,187); fill-opacity: 0.4"></path><path d="M326.5806883802006,6.500594609022137L326.9724135848069,6.811542158137777L259.2783115960053,7.4263030213945065zM258.88658639139913,7.115355472278865L258.88658639139913,10.78526873718866L326.5806883802006,6.500594609022137z" style="fill:rgb(153,221,255); fill-opacity: 0.4"></path><path d="M172.35049838592334,-26.29508008553941L231.58283646190353,-26.83299583031623L177.06545708596076,-22.552393031659886zM177.06545708596076,21.620127075036514L172.35049838592334,17.877440021156985L172.35049838592334,-26.29508008553941z" style="fill:rgb(238,238,238); fill-opacity: 0.4"></path><path d="M326.9724135848068,6.811542158137777L326.9724135848068,10.481455423047572M326.9724135848068,6.811542158137777L326.58068838020057,6.500594609022137M326.97241978354526,6.811542308342165L326.97241978354526,10.48145557325196M326.97241978354526,6.811542308342165L326.580694578939,6.500594759226524M326.97241978354526,6.811542308342165L351.0470436265585,5.834249110724048M326.9724135848068,10.481455423047572L326.58068838020057,10.170507873931932M326.97241978354526,10.48145557325196L326.580694578939,10.17050802413632M326.97241978354526,10.48145557325196L351.0470436265585,5.834249110724048" style="fill:none;stroke:rgb(0,0,0);stroke-width:1;stroke-linecap:round"></path><path d="M326.5806883802006,10.17050787393193L258.88658639139913,10.78526873718866L326.9724135848069,10.481455423047572z" style="fill:rgb(153,221,255); fill-opacity: 0.4"></path><path d="M323.69242510050833,16.50303529784171L328.40738380054574,20.245722351721238L328.40738380054574,-23.92679775497516zM4.59354558251804,-29.463720749224994L4.59354558251804,23.35230205901093L63.82588365849823,-30.001636494001815z" style="fill:rgb(238,238,238); fill-opacity: 0.4"></path><path d="M326.97241349180075,6.811542158982409L326.97241349180075,10.481455423892204L326.5806882871945,10.170507874776563z" style="fill:rgb(255,187,187); fill-opacity: 0.4"></path><path d="M326.5806883802006,10.17050787393193L326.9724135848069,10.481455423047572L326.9724135848069,6.811542158137777zM258.88658639139913,10.78526873718866L326.5806883802006,10.17050787393193L326.5806883802006,6.500594609022137z" style="fill:rgb(153,221,255); fill-opacity: 0.4"></path><path d="M420.04654490735754,14.62857555632986L416.2724400834333,11.63272889825126" style="fill:none;stroke:rgb(0,0,0);stroke-width:1;stroke-linecap:round"></path><path d="M326.97241349180075,10.481455423892204L326.97241349180075,6.811542158982409L351.04703733453255,5.834249257025383z" style="fill:rgb(255,187,187); fill-opacity: 0.4"></path><path d="M4.593545582518037,23.35230205901093L63.82588365849823,22.814386314234113" style="fill:none;stroke:rgb(0,0,0);stroke-width:1;stroke-linecap:round"></path><path d="M326.97241349180075,6.811542158982409L326.5806882871945,10.170507874776563L326.5806882871945,6.500594609866768z" style="fill:rgb(255,187,187); fill-opacity: 0.4"></path><path d="M326.5806883802006,6.500594609022137L326.5806883802006,10.17050787393193L326.9724135848069,6.811542158137777z" style="fill:rgb(153,221,255); fill-opacity: 0.4"></path><path d="M88.70267306640356,-25.535436220088876L88.70267306640356,18.63708388660752M88.70267306640356,-25.535436220088876L147.93501114238376,-26.073351964865694" style="fill:none;stroke:rgb(0,0,0);stroke-width:1;stroke-linecap:round"></path><path d="M326.97241349180075,6.811542158982409L326.5806882871945,6.500594609866768L351.04703733453255,5.834249257025383zM326.5806882871945,10.170507874776563L326.97241349180075,10.481455423892204L351.04703733453255,5.834249257025383z" style="fill:rgb(255,187,187); fill-opacity: 0.4"></path><path d="M326.58068838020057,6.500594609022137L326.58068838020057,10.170507873931932M326.580694578939,10.17050802413632L326.580694578939,6.500594759226524M326.580694578939,6.500594759226524L351.0470436265585,5.834249110724048M326.580694578939,10.17050802413632L351.0470436265585,5.834249110724048" style="fill:none;stroke:rgb(0,0,0);stroke-width:1;stroke-linecap:round"></path><path d="M352.3524429185561,-20.114708438420923L352.3524429185561,15.24333641958659L348.5783380946318,-23.110555096499525z" style="fill:rgb(238,238,238); fill-opacity: 0.4"></path><path d="M63.82588365849823,-30.001636494001808L63.82588365849823,22.814386314234113" style="fill:none;stroke:rgb(0,0,0);stroke-width:1;stroke-linecap:round"></path><path d="M326.5806882871945,6.500594609866768L326.5806882871945,10.170507874776563L351.04703733453255,5.834249257025383z" style="fill:rgb(255,187,187); fill-opacity: 0.4"></path><path d="M231.58283646190353,-26.83299583031623L231.58283646190353,17.339524276380168L236.29779516194094,-23.090308776436704zM4.59354558251804,23.35230205901093L63.82588365849823,22.814386314234113L63.82588365849823,-30.001636494001815zM231.58283646190353,17.339524276380168L172.35049838592334,17.877440021156985L236.29779516194094,21.082211330259696zM88.70267306640355,-25.535436220088876L88.70267306640355,18.63708388660752L147.93501114238376,-26.073351964865694z" style="fill:rgb(238,238,238); fill-opacity: 0.4"></path><path d="M88.70267306640356,18.63708388660752L147.93501114238376,18.099168141830706" style="fill:none;stroke:rgb(0,0,0);stroke-width:1;stroke-linecap:round"></path><path d="M416.27244008343337,-23.725315959756255L420.04654490735766,-20.729469301677653L352.3524429185561,-20.114708438420923zM255.99832311170678,-27.05472394559796L323.69242510050833,-27.669484808854687L260.7132818117442,-23.312036891718435zM348.5783380946318,12.247489761507987L352.3524429185561,15.24333641958659L420.04654490735766,14.62857555632986zM260.7132818117442,20.860483214977965L255.99832311170678,17.117796161098436L255.99832311170678,-27.05472394559796z" style="fill:rgb(238,238,238); fill-opacity: 0.4"></path><path d="M147.93501114238376,-26.073351964865694L147.93501114238376,18.099168141830706" style="fill:none;stroke:rgb(0,0,0);stroke-width:1;stroke-linecap:round"></path><path d="M88.70267306640355,18.63708388660752L147.93501114238376,18.099168141830702L147.93501114238376,-26.073351964865694z" style="fill:rgb(238,238,238); fill-opacity: 0.4"></path><path d="M172.35049838592337,-26.29508008553941L172.35049838592337,17.877440021156985M172.35049838592337,-26.29508008553941L231.58283646190355,-26.83299583031623" style="fill:none;stroke:rgb(0,0,0);stroke-width:1;stroke-linecap:round"></path><path d="M416.27244008343337,11.63272889825126L420.04654490735766,14.62857555632986L420.04654490735766,-20.729469301677653z" style="fill:rgb(238,238,238); fill-opacity: 0.4"></path><path d="M455.7201614472394,-51.16229775157264L447.25839869863916,-51.08545264366555M447.25839869863916,-51.08545264366555L447.25839869863916,42.1868523031649M447.25839869863916,-51.08545264366555L446.3533212923952,-51.80389403554481M455.7201614472394,-51.16229775157264L455.7201614472394,42.1100071952578M455.7201614472394,-51.16229775157264L454.81508404099543,-51.8807391434519" style="fill:none;stroke:rgb(0,0,0);stroke-width:1;stroke-linecap:round"></path><path d="M323.69242510050833,-27.669484808854687L323.69242510050833,16.50303529784171L328.40738380054574,-23.92679775497516zM323.69242510050833,16.50303529784171L255.99832311170678,17.117796161098436L328.40738380054574,20.245722351721238zM172.35049838592334,-26.29508008553941L172.35049838592334,17.877440021156985L231.58283646190353,-26.83299583031623z" style="fill:rgb(238,238,238); fill-opacity: 0.4"></path><path d="M172.35049838592337,17.877440021156985L231.58283646190355,17.33952427638017" style="fill:none;stroke:rgb(0,0,0);stroke-width:1;stroke-linecap:round"></path><path d="M455.7201614472394,-51.16229775157264L455.7201614472394,42.1100071952578L447.25839869863916,-51.08545264366555zM454.8150840409953,-51.8807391434519L455.7201614472394,-51.16229775157264L447.25839869863916,-51.08545264366555z" style="fill:rgb(238,238,238); fill-opacity: 0.4"></path><path d="M488.59741041466714,-47.07615638266276L480.1356476660669,-46.99931127475567M480.1356476660669,-46.99931127475567L480.1356476660669,37.50356449570515M480.1356476660669,-46.99931127475567L479.23057025982297,-47.71775266663493" style="fill:none;stroke:rgb(0,0,0);stroke-width:1;stroke-linecap:round"></path><path d="M352.3524429185561,15.24333641958659L348.5783380946318,12.247489761507987L348.5783380946318,-23.110555096499525zM348.5783380946318,-23.110555096499525L416.27244008343337,-23.725315959756255L352.3524429185561,-20.114708438420923z" style="fill:rgb(238,238,238); fill-opacity: 0.4"></path><path d="M488.59741041466714,-47.07615638266276L488.59741041466714,37.42671938779805M488.59741041466714,-47.07615638266276L487.6923330084232,-47.79459777454202" style="fill:none;stroke:rgb(0,0,0);stroke-width:1;stroke-linecap:round"></path><path d="M447.25839869863916,-51.08545264366555L447.25839869863916,42.1868523031649L446.3533212923951,-51.80389403554481z" style="fill:rgb(238,238,238); fill-opacity: 0.4"></path><path d="M231.58283646190355,-26.83299583031623L231.58283646190355,17.33952427638017" style="fill:none;stroke:rgb(0,0,0);stroke-width:1;stroke-linecap:round"></path><path d="M455.7201614472394,42.1100071952578L447.25839869863916,42.1868523031649L447.25839869863916,-51.08545264366555z" style="fill:rgb(238,238,238); fill-opacity: 0.4"></path><path d="M423.6111480771677,-4.597879160295482L437.4465902810125,-4.723525090190253" style="fill:none;stroke:rgb(0,0,0);stroke-width:1;stroke-linecap:round"></path><path d="M446.3533212923951,-51.80389403554481L454.8150840409953,-51.8807391434519L447.25839869863916,-51.08545264366555zM172.35049838592334,17.877440021156985L231.58283646190353,17.339524276380168L231.58283646190353,-26.83299583031623zM488.59741041466725,-47.07615638266276L488.59741041466725,37.42671938779805L480.13564766606703,-46.99931127475567zM487.6923330084232,-47.79459777454202L488.59741041466725,-47.07615638266276L480.13564766606703,-46.99931127475567z" style="fill:rgb(238,238,238); fill-opacity: 0.4"></path><path d="M455.7201614472394,42.1100071952578L447.25839869863916,42.1868523031649M447.25839869863916,42.1868523031649L446.3533212923952,41.46841091128564M255.99832311170678,-27.05472394559796L255.99832311170678,17.11779616109844M255.99832311170678,-27.05472394559796L323.6924251005083,-27.669484808854687M446.3533212923952,-51.80389403554481L446.3533212923952,41.46841091128564M446.3533212923952,-51.80389403554481L454.81508404099543,-51.8807391434519" style="fill:none;stroke:rgb(0,0,0);stroke-width:1;stroke-linecap:round"></path><path d="M437.1361295995721,-4.02491100962932L437.4465902810125,-1.665264036098757L445.5850856950389,-4.797434460716589z" style="fill:rgb(0,0,0)"></path><path d="M455.7201614472394,42.1100071952578L454.81508404099543,41.39156580337854" style="fill:none;stroke:rgb(0,0,0);stroke-width:1;stroke-linecap:round"></path><path d="M488.59741041466725,37.42671938779805L480.13564766606703,37.50356449570515L480.13564766606703,-46.99931127475567z" style="fill:rgb(238,238,238); fill-opacity: 0.4"></path><path d="M437.2547150352077,-7.350018932139989L437.1361295995721,-4.02491100962932L445.5850856950389,-4.797434460716589z" style="fill:rgb(0,0,0)"></path><path d="M454.8150840409953,41.39156580337854L455.7201614472394,42.1100071952578L455.7201614472394,-51.16229775157264zM480.13564766606703,-46.99931127475567L480.13564766606703,37.50356449570515L479.23057025982297,-47.71775266663493zM454.8150840409953,-51.8807391434519L454.8150840409953,41.39156580337854L455.7201614472394,-51.16229775157264z" style="fill:rgb(238,238,238); fill-opacity: 0.4"></path><path d="M456.48839704459556,-4.896452379570418L470.3238392484404,-5.022098309465189M454.81508404099543,-51.8807391434519L454.81508404099543,41.39156580337854" style="fill:none;stroke:rgb(0,0,0);stroke-width:1;stroke-linecap:round"></path><path d="M479.23057025982297,-47.71775266663493L487.6923330084232,-47.79459777454202L480.13564766606703,-46.99931127475567zM416.27244008343337,11.63272889825126L348.5783380946318,12.247489761507987L420.04654490735766,14.62857555632986zM416.27244008343337,-23.725315959756255L416.27244008343337,11.63272889825126L420.04654490735766,-20.729469301677653zM447.25839869863916,42.1868523031649L446.3533212923951,41.46841091128564L446.3533212923951,-51.80389403554481zM446.3533212923951,41.46841091128564L447.25839869863916,42.1868523031649L455.7201614472394,42.1100071952578z" style="fill:rgb(238,238,238); fill-opacity: 0.4"></path><path d="M488.59741041466714,37.42671938779805L480.1356476660669,37.50356449570515M480.1356476660669,37.50356449570515L479.23057025982297,36.78512310382589" style="fill:none;stroke:rgb(0,0,0);stroke-width:1;stroke-linecap:round"></path><path d="M446.3533212923951,-51.80389403554481L446.3533212923951,41.46841091128564L454.8150840409953,-51.8807391434519zM255.99832311170678,-27.05472394559796L255.99832311170678,17.117796161098436L323.69242510050833,-27.669484808854687z" style="fill:rgb(238,238,238); fill-opacity: 0.4"></path><path d="M255.99832311170678,17.11779616109844L323.6924251005083,16.50303529784171M488.59741041466714,37.42671938779805L487.6923330084232,36.70827799591879" style="fill:none;stroke:rgb(0,0,0);stroke-width:1;stroke-linecap:round"></path><path d="M470.01337856699996,-4.323484228904256L470.3238392484404,-1.9638372553736934L478.4623346624668,-5.0960076799915255z" style="fill:rgb(0,0,0)"></path><path d="M479.23057025982297,-47.71775266663493L479.23057025982297,36.78512310382589M479.23057025982297,-47.71775266663493L487.6923330084232,-47.79459777454202" style="fill:none;stroke:rgb(0,0,0);stroke-width:1;stroke-linecap:round"></path><path d="M487.6923330084232,36.70827799591879L488.59741041466725,37.42671938779805L488.59741041466725,-47.07615638266276z" style="fill:rgb(238,238,238); fill-opacity: 0.4"></path><path d="M470.1319640026356,-7.648592151414924L470.01337856699996,-4.323484228904256L478.4623346624668,-5.0960076799915255z" style="fill:rgb(0,0,0)"></path><path d="M487.6923330084232,-47.79459777454202L487.6923330084232,36.70827799591879L488.59741041466725,-47.07615638266276z" style="fill:rgb(238,238,238); fill-opacity: 0.4"></path><path d="M487.6923330084232,-47.79459777454202L487.6923330084232,36.70827799591879M348.5783380946318,-23.110555096499525L348.5783380946318,12.247489761507989M348.5783380946318,-23.110555096499525L416.2724400834333,-23.725315959756255" style="fill:none;stroke:rgb(0,0,0);stroke-width:1;stroke-linecap:round"></path><path d="M454.8150840409953,41.39156580337854L446.3533212923951,41.46841091128564L455.7201614472394,42.1100071952578zM479.23057025982297,36.78512310382589L480.13564766606703,37.50356449570515L488.59741041466725,37.42671938779805zM480.13564766606703,37.50356449570515L479.23057025982297,36.78512310382589L479.23057025982297,-47.71775266663493zM446.3533212923951,41.46841091128564L454.8150840409953,41.39156580337854L454.8150840409953,-51.8807391434519zM479.23057025982297,-47.71775266663493L479.23057025982297,36.78512310382589L487.6923330084232,-47.79459777454202z" style="fill:rgb(238,238,238); fill-opacity: 0.4"></path><path d="M323.6924251005083,-27.669484808854687L323.6924251005083,16.50303529784171" style="fill:none;stroke:rgb(0,0,0);stroke-width:1;stroke-linecap:round"></path><path d="M255.99832311170678,17.117796161098436L323.69242510050833,16.50303529784171L323.69242510050833,-27.669484808854687z" style="fill:rgb(238,238,238); fill-opacity: 0.4"></path><path d="M446.3533212923952,41.46841091128564L454.81508404099543,41.39156580337854M348.5783380946318,12.247489761507989L416.2724400834333,11.63272889825126" style="fill:none;stroke:rgb(0,0,0);stroke-width:1;stroke-linecap:round"></path><path d="M487.6923330084232,36.70827799591879L479.23057025982297,36.78512310382589L488.59741041466725,37.42671938779805zM348.5783380946318,-23.110555096499525L348.5783380946318,12.247489761507987L416.27244008343337,-23.725315959756255zM479.23057025982297,36.78512310382589L487.6923330084232,36.70827799591879L487.6923330084232,-47.79459777454202z" style="fill:rgb(238,238,238); fill-opacity: 0.4"></path><path d="M479.23057025982297,36.78512310382589L487.6923330084232,36.70827799591879" style="fill:none;stroke:rgb(0,0,0);stroke-width:1;stroke-linecap:round"></path><path d="M348.5783380946318,12.247489761507987L416.27244008343337,11.63272889825126L416.27244008343337,-23.725315959756255z" style="fill:rgb(238,238,238); fill-opacity: 0.4"></path><path d="M416.2724400834333,-23.725315959756255L416.2724400834333,11.63272889825126" style="fill:none;stroke:rgb(0,0,0);stroke-width:1;stroke-linecap:round"></path></svg>