<svg viewBox="-720 -400.5 1440 801" width="1440" height="801" style="background-color: rgb(255, 255, 255);" xmlns="http://www.w3.org/2000/svg"><path d="M462.7300081378749,-11.745639984014373L462.7300081378749,2.0755031877297068M462.7300081378749,2.0755031877297068L455.85385878397597,2.1433236086218734M462.7300081378749,2.0755031877297068L463.60400568863685,2.609078302319276M455.85385878397597,-11.677819563122206L455.85385878397597,2.1433236086218734M455.85385878397597,2.1433236086218734L456.72785633473796,2.676898723211443" style="fill:none;stroke:rgb(0,0,0);stroke-width:1;stroke-linecap:round"></path><path d="M462.7300081378748,2.0755031877297068L455.85385878397597,2.1433236086218734L455.85385878397597,-11.677819563122206zM462.7300081378748,-11.745639984014373L462.7300081378748,2.0755031877297068L455.85385878397597,-11.677819563122206z" style="fill:rgb(196,239,206); fill-opacity: 0.4"></path><path d="M462.7300081378749,-11.745639984014373L455.85385878397597,-11.677819563122206M462.7300081378749,-11.745639984014373L463.60400568863685,-11.212064869424804M436.0134857108253,-35.66913222001353L436.0134857108253,26.526013003633565M436.0134857108253,26.526013003633565L429.1373363569264,26.593833424525737M436.0134857108253,26.526013003633565L436.88748326158725,27.059588118223132M455.85385878397597,-11.677819563122206L456.72785633473796,-11.144244448532637M429.1373363569264,-35.601311799121355L429.1373363569264,26.593833424525737M429.1373363569264,26.593833424525737L430.01133390768837,27.127408539115304" style="fill:none;stroke:rgb(0,0,0);stroke-width:1;stroke-linecap:round"></path><path d="M463.60400568863685,2.609078302319276L462.7300081378748,2.0755031877297068L462.7300081378748,-11.745639984014373zM456.727856334738,2.676898723211443L455.85385878397597,2.1433236086218734L462.7300081378748,2.0755031877297068zM463.60400568863685,-11.212064869424804L462.7300081378748,-11.745639984014373L455.85385878397597,-11.677819563122206zM436.0134857108252,26.526013003633565L429.1373363569263,26.593833424525734L429.1373363569263,-35.60131179912136z" style="fill:rgb(196,239,206); fill-opacity: 0.4"></path><path d="M409.29696328377565,-49.81390573739994L409.29696328377565,41.197804100924685M409.29696328377565,41.197804100924685L402.4208139298767,41.265624521816854M409.29696328377565,41.197804100924685L410.1709608345376,41.73137921551425" style="fill:none;stroke:rgb(0,0,0);stroke-width:1;stroke-linecap:round"></path><path d="M455.85385878397597,-11.677819563122206L455.85385878397597,2.1433236086218734L456.727856334738,-11.144244448532637zM430.01133390768837,27.1274085391153L429.1373363569263,26.593833424525734L436.0134857108252,26.526013003633565z" style="fill:rgb(196,239,206); fill-opacity: 0.4"></path><path d="M448.5000948604289,-6.555007783685481L448.38558158279477,-3.8382610034610396L448.68538121685356,-4.425446545170722z" style="fill:rgb(0,0,0)"></path><path d="M402.4208139298767,-49.746085316507774L402.4208139298767,41.265624521816854M402.4208139298767,41.265624521816854L403.2948114806387,41.79919963640642" style="fill:none;stroke:rgb(0,0,0);stroke-width:1;stroke-linecap:round"></path><path d="M463.60400568863685,2.609078302319276L456.727856334738,2.676898723211443L462.7300081378748,2.0755031877297068z" style="fill:rgb(196,239,206); fill-opacity: 0.4"></path><path d="M448.38558158279477,-3.8382610034610396L448.68538121685356,-1.9329847128581534L448.68538121685356,-4.425446545170722z" style="fill:rgb(0,0,0)"></path><path d="M436.0134857108252,-35.66913222001353L436.0134857108252,26.526013003633565L429.1373363569263,-35.60131179912136zM463.60400568863685,-11.212064869424804L463.60400568863685,2.609078302319276L462.7300081378748,-11.745639984014373zM436.88748326158725,27.059588118223132L436.0134857108252,26.526013003633565L436.0134857108252,-35.66913222001353z" style="fill:rgb(196,239,206); fill-opacity: 0.4"></path><path d="M448.5000948604289,-6.555007783685481L448.8706675732782,-6.328773307913812L455.29883891420207,-4.490676001586238z" style="fill:rgb(0,0,0)"></path><path d="M455.85385878397597,2.1433236086218734L456.727856334738,2.676898723211443L456.727856334738,-11.144244448532637z" style="fill:rgb(196,239,206); fill-opacity: 0.4"></path><path d="M437.4425031313612,-4.314556469264344L448.68538121685356,-4.425446545170722" style="fill:none;stroke:rgb(0,0,0);stroke-width:1;stroke-linecap:round"></path><path d="M448.8706675732782,-6.328773307913812L448.5000948604289,-6.555007783685481L448.68538121685356,-4.425446545170722zM448.9851808509123,-3.4722059179351232L448.68538121685356,-1.9329847128581534L455.29883891420207,-4.490676001586238z" style="fill:rgb(0,0,0)"></path><path d="M456.727856334738,-11.144244448532637L463.60400568863685,-11.212064869424804L455.85385878397597,-11.677819563122206z" style="fill:rgb(196,239,206); fill-opacity: 0.4"></path><path d="M436.0134857108253,-35.66913222001353L429.1373363569264,-35.601311799121355M436.0134857108253,-35.66913222001353L436.88748326158725,-35.13555710542396" style="fill:none;stroke:rgb(0,0,0);stroke-width:1;stroke-linecap:round"></path><path d="M436.88748326158725,27.059588118223132L430.01133390768837,27.1274085391153L436.0134857108252,26.526013003633565z" style="fill:rgb(196,239,206); fill-opacity: 0.4"></path><path d="M448.68538121685356,-1.9329847128581534L448.9851808509123,-3.4722059179351232L448.68538121685356,-4.425446545170722z" style="fill:rgb(0,0,0)"></path><path d="M403.29481148063877,41.799199636406414L402.4208139298767,41.265624521816854L409.29696328377554,41.197804100924685zM409.29696328377554,41.197804100924685L402.4208139298767,41.265624521816854L402.4208139298767,-49.746085316507774z" style="fill:rgb(196,239,206); fill-opacity: 0.4"></path><path d="M448.8706675732782,-6.328773307913812L448.9851808509123,-3.4722059179351232L455.29883891420207,-4.490676001586238z" style="fill:rgb(0,0,0)"></path><path d="M456.72785633473796,2.676898723211443L463.60400568863685,2.609078302319276M463.60400568863685,-11.212064869424804L463.60400568863685,2.609078302319276" style="fill:none;stroke:rgb(0,0,0);stroke-width:1;stroke-linecap:round"></path><path d="M448.9851808509123,-3.4722059179351232L448.8706675732782,-6.328773307913812L448.68538121685356,-4.425446545170722z" style="fill:rgb(0,0,0)"></path><path d="M429.1373363569264,-35.601311799121355L430.01133390768837,-35.06773668453179" style="fill:none;stroke:rgb(0,0,0);stroke-width:1;stroke-linecap:round"></path><path d="M456.727856334738,2.676898723211443L463.60400568863685,2.609078302319276L463.60400568863685,-11.212064869424804z" style="fill:rgb(196,239,206); fill-opacity: 0.4"></path><path d="M456.72785633473796,-11.144244448532637L456.72785633473796,2.676898723211443" style="fill:none;stroke:rgb(0,0,0);stroke-width:1;stroke-linecap:round"></path><path d="M429.1373363569263,-35.60131179912136L429.1373363569263,26.593833424525734L430.01133390768837,-35.067736684531795z" style="fill:rgb(196,239,206); fill-opacity: 0.4"></path><path d="M456.72785633473796,-11.144244448532637L463.60400568863685,-11.212064869424804" style="fill:none;stroke:rgb(0,0,0);stroke-width:1;stroke-linecap:round"></path><path d="M421.7835724333792,-6.2914989937331285L421.6690591557451,-3.5747522135086873L421.9688587898039,-4.16193775521837z" style="fill:rgb(0,0,0)"></path><path d="M456.727856334738,-11.144244448532637L456.727856334738,2.676898723211443L463.60400568863685,-11.212064869424804z" style="fill:rgb(196,239,206); fill-opacity: 0.4"></path><path d="M421.6690591557451,-3.5747522135086873L421.9688587898039,-1.669475922905801L421.9688587898039,-4.16193775521837z" style="fill:rgb(0,0,0)"></path><path d="M430.01133390768837,27.127408539115304L436.88748326158725,27.059588118223132M436.88748326158725,-35.13555710542396L436.88748326158725,27.059588118223132" style="fill:none;stroke:rgb(0,0,0);stroke-width:1;stroke-linecap:round"></path><path d="M410.1709608345376,41.73137921551425L409.29696328377554,41.197804100924685L409.29696328377554,-49.81390573739994zM429.1373363569263,26.593833424525734L430.01133390768837,27.1274085391153L430.01133390768837,-35.067736684531795zM410.1709608345376,41.73137921551425L403.29481148063877,41.799199636406414L409.29696328377554,41.197804100924685z" style="fill:rgb(196,239,206); fill-opacity: 0.4"></path><path d="M378.8867383710952,-9.643191036859106L378.8867383710952,1.3098059529430037M378.8867383710952,1.3098059529430037L367.98829932899685,1.417298778485492M378.8867383710952,1.3098059529430037L380.2719917359777,2.1555025138296373" style="fill:none;stroke:rgb(0,0,0);stroke-width:1;stroke-linecap:round"></path><path d="M409.29696328377554,-49.81390573739994L409.29696328377554,41.197804100924685L402.4208139298767,-49.746085316507774z" style="fill:rgb(196,239,206); fill-opacity: 0.4"></path><path d="M347.71092763552747,-13.06208319401664L347.71092763552747,4.801485381657509M347.71092763552747,4.801485381657509L292.70173280433687,5.344048748794846M347.71092763552747,4.801485381657509L349.9701785511719,6.180757057133712" style="fill:none;stroke:rgb(0,0,0);stroke-width:1;stroke-linecap:round"></path><path d="M436.88748326158725,-35.13555710542396L436.0134857108252,-35.66913222001353L429.1373363569263,-35.60131179912136z" style="fill:rgb(196,239,206); fill-opacity: 0.4"></path><path d="M421.7835724333792,-6.2914989937331285L422.15414514622853,-6.0652645179614595L428.58231648715235,-4.227167211633886z" style="fill:rgb(0,0,0)"></path><path d="M410.7259807043116,-4.051047679311992L421.96885878980396,-4.16193775521837M430.01133390768837,-35.06773668453179L430.01133390768837,27.127408539115304" style="fill:none;stroke:rgb(0,0,0);stroke-width:1;stroke-linecap:round"></path><path d="M422.15414514622853,-6.0652645179614595L421.7835724333792,-6.2914989937331285L421.9688587898039,-4.16193775521837z" style="fill:rgb(0,0,0)"></path><path d="M436.88748326158725,-35.13555710542396L436.88748326158725,27.059588118223132L436.0134857108252,-35.66913222001353z" style="fill:rgb(196,239,206); fill-opacity: 0.4"></path><path d="M378.8867383710952,-9.643191036859106L367.98829932899685,-9.53569821131662M378.8867383710952,-9.643191036859106L380.2719917359777,-8.79749447597247" style="fill:none;stroke:rgb(0,0,0);stroke-width:1;stroke-linecap:round"></path><path d="M422.26865842386263,-3.208697127982771L421.9688587898039,-1.669475922905801L428.58231648715235,-4.227167211633886z" style="fill:rgb(0,0,0)"></path><path d="M378.8867383710953,-9.643191036859106L378.8867383710953,1.309805952943004L367.98829932899685,-9.53569821131662z" style="fill:rgb(196,239,206); fill-opacity: 0.4"></path><path d="M421.9688587898039,-1.669475922905801L422.26865842386263,-3.208697127982771L421.9688587898039,-4.16193775521837z" style="fill:rgb(0,0,0)"></path><path d="M378.8867383710953,1.309805952943004L367.98829932899685,1.417298778485492L367.98829932899685,-9.53569821131662z" style="fill:rgb(196,239,206); fill-opacity: 0.4"></path><path d="M367.98829932899685,-9.53569821131662L367.98829932899685,1.417298778485492M367.98829932899685,1.417298778485492L369.37355269387933,2.2629953393721256" style="fill:none;stroke:rgb(0,0,0);stroke-width:1;stroke-linecap:round"></path><path d="M422.15414514622853,-6.0652645179614595L422.26865842386263,-3.208697127982771L428.58231648715235,-4.227167211633886z" style="fill:rgb(0,0,0)"></path><path d="M430.01133390768837,27.1274085391153L436.88748326158725,27.059588118223132L436.88748326158725,-35.13555710542396z" style="fill:rgb(196,239,206); fill-opacity: 0.4"></path><path d="M347.71092763552747,-13.06208319401664L292.70173280433687,-12.519519826879305M347.71092763552747,-13.06208319401664L349.9701785511719,-11.682811518540438" style="fill:none;stroke:rgb(0,0,0);stroke-width:1;stroke-linecap:round"></path><path d="M422.26865842386263,-3.208697127982771L422.15414514622853,-6.0652645179614595L421.9688587898039,-4.16193775521837z" style="fill:rgb(0,0,0)"></path><path d="M403.2948114806387,41.79919963640642L410.1709608345376,41.73137921551425M410.1709608345376,-49.280330622810375L410.1709608345376,41.73137921551425M409.29696328377565,-49.81390573739994L402.4208139298767,-49.746085316507774M409.29696328377565,-49.81390573739994L410.1709608345376,-49.280330622810375M367.98829932899685,-9.53569821131662L369.37355269387933,-8.690001650429984" style="fill:none;stroke:rgb(0,0,0);stroke-width:1;stroke-linecap:round"></path><path d="M395.0670500063296,-6.027990203780776L394.9525367286955,-3.311243423556336L395.2523363627543,-3.8984289652660182z" style="fill:rgb(0,0,0)"></path><path d="M403.2948114806387,-49.21251020191821L403.2948114806387,41.79919963640642" style="fill:none;stroke:rgb(0,0,0);stroke-width:1;stroke-linecap:round"></path><path d="M430.01133390768837,-35.067736684531795L436.88748326158725,-35.13555710542396L429.1373363569263,-35.60131179912136zM402.4208139298767,41.265624521816854L403.29481148063877,41.799199636406414L403.29481148063877,-49.21251020191821zM402.4208139298767,-49.746085316507774L402.4208139298767,41.265624521816854L403.29481148063877,-49.21251020191821z" style="fill:rgb(196,239,206); fill-opacity: 0.4"></path><path d="M394.9525367286955,-3.311243423556336L395.2523363627543,-1.4059671329534493L395.2523363627543,-3.8984289652660182z" style="fill:rgb(0,0,0)"></path><path d="M402.4208139298767,-49.746085316507774L403.2948114806387,-49.21251020191821" style="fill:none;stroke:rgb(0,0,0);stroke-width:1;stroke-linecap:round"></path><path d="M347.7109276355275,-13.06208319401664L347.7109276355275,4.801485381657509L292.70173280433687,-12.519519826879305zM430.01133390768837,-35.067736684531795L430.01133390768837,27.1274085391153L436.88748326158725,-35.13555710542396z" style="fill:rgb(196,239,206); fill-opacity: 0.4"></path><path d="M395.0670500063296,-6.027990203780776L395.437622719179,-5.801755728009109L401.8657940601027,-3.9636584216815343z" style="fill:rgb(0,0,0)"></path><path d="M384.00945827726196,-3.7875388893596407L395.2523363627543,-3.8984289652660182" style="fill:none;stroke:rgb(0,0,0);stroke-width:1;stroke-linecap:round"></path><path d="M380.2719917359777,2.1555025138296373L378.8867383710953,1.309805952943004L378.8867383710953,-9.643191036859106z" style="fill:rgb(196,239,206); fill-opacity: 0.4"></path><path d="M395.437622719179,-5.801755728009109L395.0670500063296,-6.027990203780776L395.2523363627543,-3.8984289652660182zM395.5521359968131,-2.945188338030419L395.2523363627543,-1.4059671329534493L401.8657940601027,-3.9636584216815343z" style="fill:rgb(0,0,0)"></path><path d="M410.1709608345376,-49.280330622810375L410.1709608345376,41.73137921551425L409.29696328377554,-49.81390573739994z" style="fill:rgb(196,239,206); fill-opacity: 0.4"></path><path d="M430.01133390768837,-35.06773668453179L436.88748326158725,-35.13555710542396" style="fill:none;stroke:rgb(0,0,0);stroke-width:1;stroke-linecap:round"></path><path d="M369.3735526938792,2.2629953393721256L367.98829932899685,1.417298778485492L378.8867383710953,1.309805952943004z" style="fill:rgb(196,239,206); fill-opacity: 0.4"></path><path d="M395.2523363627543,-1.4059671329534493L395.5521359968131,-2.945188338030419L395.2523363627543,-3.8984289652660182z" style="fill:rgb(0,0,0)"></path><path d="M403.29481148063877,41.799199636406414L410.1709608345376,41.73137921551425L410.1709608345376,-49.280330622810375zM410.1709608345376,-49.280330622810375L409.29696328377554,-49.81390573739994L402.4208139298767,-49.746085316507774z" style="fill:rgb(196,239,206); fill-opacity: 0.4"></path><path d="M395.437622719179,-5.801755728009109L395.5521359968131,-2.945188338030419L401.8657940601027,-3.9636584216815343z" style="fill:rgb(0,0,0)"></path><path d="M380.2719917359777,-8.79749447597247L378.8867383710953,-9.643191036859106L367.98829932899685,-9.53569821131662z" style="fill:rgb(196,239,206); fill-opacity: 0.4"></path><path d="M395.5521359968131,-2.945188338030419L395.437622719179,-5.801755728009109L395.2523363627543,-3.8984289652660182z" style="fill:rgb(0,0,0)"></path><path d="M347.7109276355275,4.801485381657509L292.70173280433687,5.344048748794846L292.70173280433687,-12.519519826879305zM367.98829932899685,-9.53569821131662L367.98829932899685,1.417298778485492L369.3735526938792,-8.690001650429984z" style="fill:rgb(196,239,206); fill-opacity: 0.4"></path><path d="M272.42436114819174,-16.045904297248807L272.42436114819174,8.728234913498648M272.42436114819174,8.728234913498648L217.41516631700105,9.270798280635985M272.42436114819174,8.728234913498648L275.5576094943482,10.641081630151893" style="fill:none;stroke:rgb(0,0,0);stroke-width:1;stroke-linecap:round"></path><path d="M349.97017855117195,6.180757057133712L347.7109276355275,4.801485381657509L347.7109276355275,-13.06208319401664z" style="fill:rgb(196,239,206); fill-opacity: 0.4"></path><path d="M292.70173280433687,-12.519519826879305L292.70173280433687,5.344048748794846M292.70173280433687,5.344048748794846L294.9609837199813,6.72332042427105" style="fill:none;stroke:rgb(0,0,0);stroke-width:1;stroke-linecap:round"></path><path d="M403.29481148063877,-49.21251020191821L403.29481148063877,41.799199636406414L410.1709608345376,-49.280330622810375zM403.29481148063877,-49.21251020191821L410.1709608345376,-49.280330622810375L402.4208139298767,-49.746085316507774zM380.2719917359777,2.1555025138296373L369.3735526938792,2.2629953393721256L378.8867383710953,1.309805952943004zM380.2719917359777,-8.79749447597247L380.2719917359777,2.1555025138296373L378.8867383710953,-9.643191036859106z" style="fill:rgb(196,239,206); fill-opacity: 0.4"></path><path d="M272.42436114819174,-16.045904297248807L217.41516631700105,-15.503340930111472M272.42436114819174,-16.045904297248807L275.5576094943482,-14.133057580595565M292.70173280433687,-12.519519826879305L294.9609837199813,-11.140248151403101" style="fill:none;stroke:rgb(0,0,0);stroke-width:1;stroke-linecap:round"></path><path d="M367.98829932899685,1.417298778485492L369.3735526938792,2.2629953393721256L369.3735526938792,-8.690001650429984z" style="fill:rgb(196,239,206); fill-opacity: 0.4"></path><path d="M403.2948114806387,-49.21251020191821L410.1709608345376,-49.280330622810375" style="fill:none;stroke:rgb(0,0,0);stroke-width:1;stroke-linecap:round"></path><path d="M369.3735526938792,-8.690001650429984L380.2719917359777,-8.79749447597247L367.98829932899685,-9.53569821131662z" style="fill:rgb(196,239,206); fill-opacity: 0.4"></path><path d="M349.26688430759333,-1.6947600468097177L368.98098051080405,-2.2366070528026185M349.26688430759333,-0.6977751950348485L368.98098051080405,-2.2366070528026185M349.3929755004702,-0.6207965780703599L368.98098051080405,-2.2366070528026185M349.3929755004702,-1.6177814298452289L368.98098051080405,-2.2366070528026185" style="fill:none;stroke:rgb(0,0,0);stroke-width:1;stroke-linecap:round"></path><path d="M272.42436114819174,-16.04590429724881L272.42436114819174,8.728234913498648L217.41516631700108,-15.503340930111472zM349.97017855117195,-11.682811518540438L347.7109276355275,-13.06208319401664L292.70173280433687,-12.519519826879305zM294.9609837199813,6.72332042427105L292.70173280433687,5.344048748794846L347.7109276355275,4.801485381657509z" style="fill:rgb(196,239,206); fill-opacity: 0.4"></path><path d="M369.37355269387933,2.2629953393721256L380.2719917359777,2.1555025138296373M380.2719917359777,-8.79749447597247L380.2719917359777,2.1555025138296373" style="fill:none;stroke:rgb(0,0,0);stroke-width:1;stroke-linecap:round"></path><path d="M272.42436114819174,8.728234913498648L217.41516631700108,9.270798280635985L217.41516631700108,-15.503340930111472zM369.3735526938792,2.2629953393721256L380.2719917359777,2.1555025138296373L380.2719917359777,-8.79749447597247z" style="fill:rgb(196,239,206); fill-opacity: 0.4"></path><path d="M369.37355269387933,-8.690001650429984L380.2719917359777,-8.79749447597247" style="fill:none;stroke:rgb(0,0,0);stroke-width:1;stroke-linecap:round"></path><path d="M349.26689896410574,-0.6977754486976891L349.26689896410574,-1.6947601816227165L368.9809951604312,-2.2366071769467366zM349.3929901569826,-0.6207968317332002L349.26689896410574,-0.6977754486976891L368.9809951604312,-2.2366071769467366zM349.26689896410574,-1.6947601816227165L349.3929901569826,-1.6177815646582279L368.9809951604312,-2.2366071769467366z" style="fill:rgb(255,21,29); fill-opacity: 0.4"></path><path d="M369.37355269387933,-8.690001650429984L369.37355269387933,2.2629953393721256" style="fill:none;stroke:rgb(0,0,0);stroke-width:1;stroke-linecap:round"></path><path d="M369.3735526938792,-8.690001650429984L369.3735526938792,2.2629953393721256L380.2719917359777,-8.79749447597247z" style="fill:rgb(196,239,206); fill-opacity: 0.4"></path><path d="M349.3929901569826,-1.6177815646582279L349.3929901569826,-0.6207968317332002L368.9809951604312,-2.2366071769467366z" style="fill:rgb(255,21,29); fill-opacity: 0.4"></path><path d="M349.2668990396838,-1.6947601823681537L349.2668990396838,-0.6977754494431261M349.2668990396838,-0.6977754494431261L294.2577042084931,-0.1552120823057891M349.2668990396838,-0.6977754494431261L349.39299023256063,-0.6207968324786373M349.26688430759333,-1.6947600468097177L349.26688430759333,-0.6977751950348485M349.26688430759333,-0.6977751950348485L349.3929755004702,-0.6207965780703599" style="fill:none;stroke:rgb(0,0,0);stroke-width:1;stroke-linecap:round"></path><path d="M349.97017855117195,-11.682811518540438L349.97017855117195,6.180757057133712L347.7109276355275,-13.06208319401664z" style="fill:rgb(196,239,206); fill-opacity: 0.4"></path><path d="M217.41516631700105,-15.503340930111472L217.41516631700105,9.270798280635985M217.41516631700105,9.270798280635985L220.5484146631575,11.183644997289228M349.2668990396838,-1.6947601823681537L294.2577042084931,-1.1521968152308166M349.2668990396838,-1.6947601823681537L349.39299023256063,-1.6177815654036647M349.26688430759333,-1.6947600468097177L349.3929755004702,-1.6177814298452289" style="fill:none;stroke:rgb(0,0,0);stroke-width:1;stroke-linecap:round"></path><path d="M349.3929902325607,-0.6207968324786374L349.26689903968384,-0.6977754494431263L349.26689903968384,-1.6947601823681537z" style="fill:rgb(91,60,255); fill-opacity: 0.4"></path><path d="M349.26689896410574,-1.6947601816227165L349.26689896410574,-0.6977754486976891L349.3929901569826,-0.6207968317332002z" style="fill:rgb(255,21,29); fill-opacity: 0.4"></path><path d="M349.3929902325607,-1.6177815654036651L349.3929902325607,-0.6207968324786374L349.26689903968384,-1.6947601823681537z" style="fill:rgb(91,60,255); fill-opacity: 0.4"></path><path d="M349.26689896410574,-1.6947601816227165L349.3929901569826,-0.6207968317332002L349.3929901569826,-1.6177815646582279z" style="fill:rgb(255,21,29); fill-opacity: 0.4"></path><path d="M294.38379540137,-0.07823346534130025L349.39299023256063,-0.6207968324786373M349.39299023256063,-1.6177815654036647L349.39299023256063,-0.6207968324786373M349.3929755004702,-0.6207965780703599L349.3929755004702,-1.6177814298452289M294.38379540137,-1.0752181982663276L349.39299023256063,-1.6177815654036647" style="fill:none;stroke:rgb(0,0,0);stroke-width:1;stroke-linecap:round"></path><path d="M292.70173280433687,-12.519519826879305L292.70173280433687,5.344048748794846L294.9609837199813,-11.140248151403101zM349.97017855117195,6.180757057133712L294.9609837199813,6.72332042427105L347.7109276355275,4.801485381657509z" style="fill:rgb(196,239,206); fill-opacity: 0.4"></path><path d="M197.4776076199518,-16.13541395553159L197.4776076199518,10.175584918686345M197.4776076199518,10.175584918686345L149.3445630887227,10.650327855600366M197.4776076199518,10.175584918686345L200.80522651347138,12.20709476773819" style="fill:none;stroke:rgb(0,0,0);stroke-width:1;stroke-linecap:round"></path><path d="M275.5576094943481,10.641081630151891L272.42436114819174,8.728234913498648L272.42436114819174,-16.04590429724881z" style="fill:rgb(196,239,206); fill-opacity: 0.4"></path><path d="M217.41516631700105,-15.503340930111472L220.5484146631575,-13.590494213458227" style="fill:none;stroke:rgb(0,0,0);stroke-width:1;stroke-linecap:round"></path><path d="M349.26689903968384,-1.6947601823681537L349.26689903968384,-0.6977754494431263L294.2577042084932,-1.1521968152308164zM349.3929902325607,-1.6177815654036651L349.26689903968384,-1.6947601823681537L294.2577042084932,-1.1521968152308164zM349.3929902325607,-0.6207968324786374L294.38379540137,-0.07823346534130027L349.26689903968384,-0.6977754494431263zM294.38379540137,-0.07823346534130027L349.3929902325607,-0.6207968324786374L349.3929902325607,-1.6177815654036651z" style="fill:rgb(91,60,255); fill-opacity: 0.4"></path><path d="M197.4776076199518,-16.13541395553159L149.3445630887227,-15.660671018617567M197.4776076199518,-16.13541395553159L200.80522651347138,-14.103904106479742" style="fill:none;stroke:rgb(0,0,0);stroke-width:1;stroke-linecap:round"></path><path d="M349.26689903968384,-0.6977754494431263L294.2577042084932,-0.15521208230578917L294.2577042084932,-1.1521968152308164zM294.38379540137,-0.07823346534130027L294.2577042084932,-0.15521208230578917L349.26689903968384,-0.6977754494431263z" style="fill:rgb(91,60,255); fill-opacity: 0.4"></path><path d="M294.9609837199813,6.72332042427105L349.9701785511719,6.180757057133712M349.9701785511719,-11.682811518540438L349.9701785511719,6.180757057133712" style="fill:none;stroke:rgb(0,0,0);stroke-width:1;stroke-linecap:round"></path><path d="M197.47760761995178,-16.135413955531586L197.47760761995178,10.175584918686345L149.34456308872268,-15.660671018617567zM294.9609837199813,-11.140248151403101L349.97017855117195,-11.682811518540438L292.70173280433687,-12.519519826879305z" style="fill:rgb(196,239,206); fill-opacity: 0.4"></path><path d="M294.38379540137,-1.0752181982663278L349.3929902325607,-1.6177815654036651L294.2577042084932,-1.1521968152308164z" style="fill:rgb(91,60,255); fill-opacity: 0.4"></path><path d="M275.5576094943481,-14.133057580595565L272.42436114819174,-16.04590429724881L217.41516631700108,-15.503340930111472z" style="fill:rgb(196,239,206); fill-opacity: 0.4"></path><path d="M294.38379540137,-1.0752181982663278L294.38379540137,-0.07823346534130027L349.3929902325607,-1.6177815654036651z" style="fill:rgb(91,60,255); fill-opacity: 0.4"></path><path d="M220.5484146631575,11.18364499728923L217.41516631700108,9.270798280635985L272.42436114819174,8.728234913498648z" style="fill:rgb(196,239,206); fill-opacity: 0.4"></path><path d="M294.9609837199813,-11.140248151403101L349.9701785511719,-11.682811518540438" style="fill:none;stroke:rgb(0,0,0);stroke-width:1;stroke-linecap:round"></path><path d="M197.47760761995178,10.175584918686345L149.34456308872268,10.650327855600368L149.34456308872268,-15.660671018617567zM292.70173280433687,5.344048748794846L294.9609837199813,6.72332042427105L294.9609837199813,-11.140248151403101z" style="fill:rgb(196,239,206); fill-opacity: 0.4"></path><path d="M274.29938773514425,-4.540424710948494L294.1901147647869,-3.061828968902443M274.29938773514425,-1.5494705121734116L294.1901147647869,-3.061828968902443M274.6776613137748,-1.3185346612799456L294.1901147647869,-3.061828968902443M274.6776613137748,-4.309488860055028L294.1901147647869,-3.061828968902443M294.2577042084931,-1.1521968152308166L294.2577042084931,-0.1552120823057891M294.2577042084931,-0.1552120823057891L294.38379540137,-0.07823346534130025M294.2577042084931,-1.1521968152308166L294.38379540137,-1.0752181982663276" style="fill:none;stroke:rgb(0,0,0);stroke-width:1;stroke-linecap:round"></path><path d="M294.2577042084932,-1.1521968152308164L294.2577042084932,-0.15521208230578917L294.38379540137,-1.0752181982663278zM294.2577042084932,-0.15521208230578917L294.38379540137,-0.07823346534130027L294.38379540137,-1.0752181982663278z" style="fill:rgb(91,60,255); fill-opacity: 0.4"></path><path d="M294.9609837199813,6.72332042427105L349.97017855117195,6.180757057133712L349.97017855117195,-11.682811518540438z" style="fill:rgb(196,239,206); fill-opacity: 0.4"></path><path d="M149.3445630887227,-15.660671018617567L149.3445630887227,10.650327855600366M149.3445630887227,10.650327855600366L152.67218198224228,12.681837704652214M294.38379540137,-1.0752181982663276L294.38379540137,-0.07823346534130025" style="fill:none;stroke:rgb(0,0,0);stroke-width:1;stroke-linecap:round"></path><path d="M274.29937985857526,-1.5494704455862238L274.29937985857526,-4.540424644361306L294.19010686505266,-3.0618288920108245z" style="fill:rgb(255,21,29); fill-opacity: 0.4"></path><path d="M274.29938773514425,-4.540424710948494L274.29938773514425,-1.5494705121734116M274.29938773514425,-1.5494705121734116L274.6776613137748,-1.3185346612799456M274.29937993415336,-4.540424645106744L274.29937993415336,-1.5494704463316618M274.29937993415336,-1.5494704463316618L219.29018510296268,-1.0069070791943244M274.29937993415336,-1.5494704463316618L274.67765351278393,-1.3185345954381953M274.29938773514425,-4.540424710948494L274.6776613137748,-4.309488860055028M274.29937993415336,-4.540424645106744L219.29018510296268,-3.9978612779694074M274.29937993415336,-4.540424645106744L274.67765351278393,-4.309488794213278" style="fill:none;stroke:rgb(0,0,0);stroke-width:1;stroke-linecap:round"></path><path d="M274.67765343720583,-1.3185345946927576L274.29937985857526,-1.5494704455862238L294.19010686505266,-3.0618288920108245zM274.29937985857526,-4.540424644361306L274.67765343720583,-4.30948879346784L294.19010686505266,-3.0618288920108245z" style="fill:rgb(255,21,29); fill-opacity: 0.4"></path><path d="M217.41516631700108,-15.503340930111472L217.41516631700108,9.270798280635985L220.5484146631575,-13.590494213458227z" style="fill:rgb(196,239,206); fill-opacity: 0.4"></path><path d="M274.67765351278393,-1.3185345954381948L274.29937993415336,-1.549470446331661L274.29937993415336,-4.540424645106743z" style="fill:rgb(91,60,255); fill-opacity: 0.4"></path><path d="M274.29937985857526,-4.540424644361306L274.29937985857526,-1.5494704455862238L274.67765343720583,-1.3185345946927576z" style="fill:rgb(255,21,29); fill-opacity: 0.4"></path><path d="M149.3445630887227,-15.660671018617567L152.67218198224228,-13.629161169565721" style="fill:none;stroke:rgb(0,0,0);stroke-width:1;stroke-linecap:round"></path><path d="M274.67765343720583,-4.30948879346784L274.67765343720583,-1.3185345946927576L294.19010686505266,-3.0618288920108245z" style="fill:rgb(255,21,29); fill-opacity: 0.4"></path><path d="M129.50418918287633,-15.464982641344392L129.50418918287633,10.846016232873545M129.50418918287633,10.846016232873545L81.37114465164721,11.320759169787566M129.50418918287633,10.846016232873545L132.83180807639593,12.877526081925389" style="fill:none;stroke:rgb(0,0,0);stroke-width:1;stroke-linecap:round"></path><path d="M294.9609837199813,-11.140248151403101L294.9609837199813,6.72332042427105L349.97017855117195,-11.682811518540438zM275.5576094943481,-14.133057580595565L275.5576094943481,10.641081630151891L272.42436114819174,-16.04590429724881z" style="fill:rgb(196,239,206); fill-opacity: 0.4"></path><path d="M274.67765351278393,-4.309488794213277L274.67765351278393,-1.3185345954381948L274.29937993415336,-4.540424645106743z" style="fill:rgb(91,60,255); fill-opacity: 0.4"></path><path d="M274.29937985857526,-4.540424644361306L274.67765343720583,-1.3185345946927576L274.67765343720583,-4.30948879346784z" style="fill:rgb(255,21,29); fill-opacity: 0.4"></path><path d="M200.80522651347138,12.207094767738191L197.47760761995178,10.175584918686345L197.47760761995178,-16.135413955531586z" style="fill:rgb(196,239,206); fill-opacity: 0.4"></path><path d="M274.29937993415336,-4.540424645106743L274.29937993415336,-1.549470446331661L219.2901851029627,-3.9978612779694065z" style="fill:rgb(91,60,255); fill-opacity: 0.4"></path><path d="M274.6776613137748,-1.3185346612799456L274.6776613137748,-4.309488860055028M219.66845868159328,-0.7759712283008584L274.67765351278393,-1.3185345954381953M274.67765351278393,-4.309488794213278L274.67765351278393,-1.3185345954381953" style="fill:none;stroke:rgb(0,0,0);stroke-width:1;stroke-linecap:round"></path><path d="M275.5576094943481,10.641081630151891L220.5484146631575,11.18364499728923L272.42436114819174,8.728234913498648z" style="fill:rgb(196,239,206); fill-opacity: 0.4"></path><path d="M219.66845868159328,-3.766925427075941L274.67765351278393,-4.309488794213278M294.9609837199813,-11.140248151403101L294.9609837199813,6.72332042427105" style="fill:none;stroke:rgb(0,0,0);stroke-width:1;stroke-linecap:round"></path><path d="M274.67765351278393,-4.309488794213277L274.29937993415336,-4.540424645106743L219.2901851029627,-3.9978612779694065z" style="fill:rgb(91,60,255); fill-opacity: 0.4"></path><path d="M129.50418918287633,-15.464982641344392L81.37114465164721,-14.990239704430369M129.50418918287633,-15.464982641344392L132.83180807639593,-13.433472792292545" style="fill:none;stroke:rgb(0,0,0);stroke-width:1;stroke-linecap:round"></path><path d="M274.67765351278393,-1.3185345954381948L219.6684586815933,-0.775971228300858L274.29937993415336,-1.549470446331661zM274.29937993415336,-1.549470446331661L219.2901851029627,-1.0069070791943242L219.2901851029627,-3.9978612779694065z" style="fill:rgb(91,60,255); fill-opacity: 0.4"></path><path d="M129.50418918287633,-15.464982641344388L129.50418918287633,10.846016232873545L81.3711446516472,-14.990239704430369z" style="fill:rgb(196,239,206); fill-opacity: 0.4"></path><path d="M219.6684586815933,-0.775971228300858L274.67765351278393,-1.3185345954381948L274.67765351278393,-4.309488794213277zM219.6684586815933,-0.775971228300858L219.2901851029627,-1.0069070791943242L274.29937993415336,-1.549470446331661z" style="fill:rgb(91,60,255); fill-opacity: 0.4"></path><path d="M152.67218198224228,12.681837704652214L149.34456308872268,10.650327855600368L197.47760761995178,10.175584918686345zM200.80522651347138,-14.103904106479742L197.47760761995178,-16.135413955531586L149.34456308872268,-15.660671018617567zM129.50418918287633,10.846016232873545L81.3711446516472,11.320759169787566L81.3711446516472,-14.990239704430369z" style="fill:rgb(196,239,206); fill-opacity: 0.4"></path><path d="M61.093772030544855,-18.516624165282362L61.093772030544855,14.704945344008875M61.093772030544855,14.704945344008875L12.960727499315741,15.1796882809229M61.093772030544855,14.704945344008875L65.29538835457649,17.270030234237762" style="fill:none;stroke:rgb(0,0,0);stroke-width:1;stroke-linecap:round"></path><path d="M219.6684586815933,-3.76692542707594L274.67765351278393,-4.309488794213277L219.2901851029627,-3.9978612779694065z" style="fill:rgb(91,60,255); fill-opacity: 0.4"></path><path d="M219.29018510296268,-3.9978612779694074L219.29018510296268,-1.0069070791943244M219.29018510296268,-1.0069070791943244L219.66845868159328,-0.7759712283008584M219.29018510296268,-3.9978612779694074L219.66845868159328,-3.766925427075941" style="fill:none;stroke:rgb(0,0,0);stroke-width:1;stroke-linecap:round"></path><path d="M220.5484146631575,-13.590494213458227L275.5576094943481,-14.133057580595565L217.41516631700108,-15.503340930111472z" style="fill:rgb(196,239,206); fill-opacity: 0.4"></path><path d="M219.6684586815933,-3.76692542707594L219.6684586815933,-0.775971228300858L274.67765351278393,-4.309488794213277z" style="fill:rgb(91,60,255); fill-opacity: 0.4"></path><path d="M81.37114465164721,-14.990239704430369L81.37114465164721,11.320759169787566M81.37114465164721,11.320759169787566L84.69876354516681,13.352269018839412" style="fill:none;stroke:rgb(0,0,0);stroke-width:1;stroke-linecap:round"></path><path d="M219.2901851029627,-3.9978612779694065L219.2901851029627,-1.0069070791943242L219.6684586815933,-3.76692542707594z" style="fill:rgb(91,60,255); fill-opacity: 0.4"></path><path d="M217.41516631700108,9.270798280635985L220.5484146631575,11.18364499728923L220.5484146631575,-13.590494213458227z" style="fill:rgb(196,239,206); fill-opacity: 0.4"></path><path d="M220.5484146631575,11.183644997289228L275.5576094943482,10.641081630151893M275.5576094943482,-14.133057580595565L275.5576094943482,10.641081630151893" style="fill:none;stroke:rgb(0,0,0);stroke-width:1;stroke-linecap:round"></path><path d="M219.2901851029627,-1.0069070791943242L219.6684586815933,-0.775971228300858L219.6684586815933,-3.76692542707594z" style="fill:rgb(91,60,255); fill-opacity: 0.4"></path><path d="M61.093772030544855,-18.516624165282362L12.960727499315741,-18.04188122836834M61.093772030544855,-18.516624165282362L65.29538835457649,-15.951539275053477" style="fill:none;stroke:rgb(0,0,0);stroke-width:1;stroke-linecap:round"></path><path d="M149.34456308872268,-15.660671018617567L149.34456308872268,10.650327855600368L152.67218198224228,-13.629161169565721z" style="fill:rgb(196,239,206); fill-opacity: 0.4"></path><path d="M81.37114465164721,-14.990239704430369L84.69876354516681,-12.958729855378522M219.66845868159328,-3.766925427075941L219.66845868159328,-0.7759712283008584" style="fill:none;stroke:rgb(0,0,0);stroke-width:1;stroke-linecap:round"></path><path d="M61.09377203054485,-18.516624165282362L61.09377203054485,14.704945344008875L12.960727499315741,-18.041881228368343z" style="fill:rgb(196,239,206); fill-opacity: 0.4"></path><path d="M220.5484146631575,-13.590494213458227L275.5576094943482,-14.133057580595565" style="fill:none;stroke:rgb(0,0,0);stroke-width:1;stroke-linecap:round"></path><path d="M132.83180807639593,12.87752608192539L129.50418918287633,10.846016232873545L129.50418918287633,-15.464982641344388zM61.09377203054485,14.704945344008875L12.960727499315741,15.179688280922896L12.960727499315741,-18.041881228368343zM200.80522651347138,-14.103904106479742L200.80522651347138,12.207094767738191L197.47760761995178,-16.135413955531586zM220.5484146631575,11.18364499728923L275.5576094943481,10.641081630151891L275.5576094943481,-14.133057580595565zM200.80522651347138,12.207094767738191L152.67218198224228,12.681837704652214L197.47760761995178,10.175584918686345z" style="fill:rgb(196,239,206); fill-opacity: 0.4"></path><path d="M12.960727499315741,-18.04188122836834L12.960727499315741,15.1796882809229M12.960727499315741,15.1796882809229L17.162343823347374,17.744773171151785" style="fill:none;stroke:rgb(0,0,0);stroke-width:1;stroke-linecap:round"></path><path d="M84.69876354516678,13.352269018839412L81.3711446516472,11.320759169787566L129.50418918287633,10.846016232873545zM132.83180807639593,-13.433472792292545L129.50418918287633,-15.464982641344388L81.3711446516472,-14.990239704430369z" style="fill:rgb(196,239,206); fill-opacity: 0.4"></path><path d="M200.38834630939104,-7.840244579580516L220.21524780153516,-7.187087409276777M200.38834630939104,-6.843259846655491L220.21524780153516,-7.187087409276777M200.51443750226792,-6.766281229691001L220.21524780153516,-7.187087409276777M200.51443750226792,-7.763265962616028L220.21524780153516,-7.187087409276777M-6.923143934974219,-18.2166725930107L-6.923143934974219,15.692746555339815M-6.923143934974219,15.692746555339815L-48.18003816624179,16.09966906203052M-6.923143934974219,15.692746555339815L-2.6345335190125736,18.310941299857998" style="fill:none;stroke:rgb(0,0,0);stroke-width:1;stroke-linecap:round"></path><path d="M220.5484146631575,-13.590494213458227L220.5484146631575,11.18364499728923L275.5576094943481,-14.133057580595565z" style="fill:rgb(196,239,206); fill-opacity: 0.4"></path><path d="M62.04184081415284,0.4333497323134507L62.04184081415284,3.4243038122386906M62.04184081415284,3.4243038122386906L62.42011439278343,3.655239663132157M62.04184081415284,3.4243038122386906L82.27179452582588,1.2937082249277423M62.04183860042323,0.4333497269109319L62.04183860042323,3.4243039256860146M62.04183860042323,3.4243039256860146L13.908794069194116,3.8990468626000356M62.04183860042323,3.4243039256860146L62.42011217905382,3.65523977657948M62.04184081415284,0.4333497323134507L62.42011439278343,0.6642855832069168M62.04184081415284,0.4333497323134507L82.27179452582588,1.2937082249277423M62.04183860042323,0.4333497269109319L13.908794069194116,0.9080926638249531M62.04183860042323,0.4333497269109319L62.42011217905382,0.664285577804398" style="fill:none;stroke:rgb(0,0,0);stroke-width:1;stroke-linecap:round"></path><path d="M62.04183900732374,3.4243039216726974L62.04183900732374,0.4333497228976159L82.27179275406255,1.2937083606527562z" style="fill:rgb(255,21,29); fill-opacity: 0.4"></path><path d="M12.960727499315741,-18.04188122836834L17.162343823347374,-15.476796338139454M62.42011439278343,3.655239663132157L82.27179452582588,1.2937082249277423M62.42011439278343,0.6642855832069168L82.27179452582588,1.2937082249277423M220.5484146631575,-13.590494213458227L220.5484146631575,11.183644997289228" style="fill:none;stroke:rgb(0,0,0);stroke-width:1;stroke-linecap:round"></path><path d="M62.04183900732374,0.4333497228976159L62.04183900732374,3.4243039216726974L62.42011258595432,3.655239772566164z" style="fill:rgb(255,21,29); fill-opacity: 0.4"></path><path d="M62.42011217905381,3.65523977657948L62.04183860042322,3.4243039256860137L62.04183860042322,0.4333497269109324z" style="fill:rgb(91,60,255); fill-opacity: 0.4"></path><path d="M62.42011258595432,3.655239772566164L62.04183900732374,3.4243039216726974L82.27179275406255,1.2937083606527562zM62.04183900732374,0.4333497228976159L62.42011258595432,0.664285573791082L82.27179275406255,1.2937083606527562zM200.3883461780706,-6.843259644020859L200.3883461780706,-7.840244376945885L220.21524760913314,-7.187087299313827z" style="fill:rgb(255,21,29); fill-opacity: 0.4"></path><path d="M152.67218198224228,-13.629161169565721L200.80522651347138,-14.103904106479742L149.34456308872268,-15.660671018617567z" style="fill:rgb(196,239,206); fill-opacity: 0.4"></path><path d="M200.5144373709475,-6.766281027056369L200.3883461780706,-6.843259644020859L220.21524760913314,-7.187087299313827zM200.3883461780706,-7.840244376945885L200.5144373709475,-7.763265759981396L220.21524760913314,-7.187087299313827zM62.04183900732374,0.4333497228976159L62.42011258595432,3.655239772566164L62.42011258595432,0.664285573791082z" style="fill:rgb(255,21,29); fill-opacity: 0.4"></path><path d="M62.42011217905381,0.6642855778043985L62.42011217905381,3.65523977657948L62.04183860042322,0.4333497269109324zM62.04183860042322,0.4333497269109324L62.04183860042322,3.4243039256860137L13.908794069194116,0.9080926638249537z" style="fill:rgb(91,60,255); fill-opacity: 0.4"></path><path d="M200.5144373709475,-7.763265759981396L200.5144373709475,-6.766281027056369L220.21524760913314,-7.187087299313827z" style="fill:rgb(255,21,29); fill-opacity: 0.4"></path><path d="M149.34456308872268,10.650327855600368L152.67218198224228,12.681837704652214L152.67218198224228,-13.629161169565721z" style="fill:rgb(196,239,206); fill-opacity: 0.4"></path><path d="M62.42011258595432,0.664285573791082L62.42011258595432,3.655239772566164L82.27179275406255,1.2937083606527562z" style="fill:rgb(255,21,29); fill-opacity: 0.4"></path><path d="M200.38834630939104,-7.840244579580516L200.38834630939104,-6.843259846655491M200.38834630939104,-6.843259846655491L200.51443750226792,-6.766281229691001M200.3883457711701,-7.840244372932567L200.3883457711701,-6.843259640007541M200.3883457711701,-6.843259640007541L152.255301239941,-6.368516703093519M200.3883457711701,-6.843259640007541L200.51443696404698,-6.766281023043051M200.38834630939104,-7.840244579580516L200.51443750226792,-7.763265962616028M200.3883457711701,-7.840244372932567L152.255301239941,-7.365501436018547M200.3883457711701,-7.840244372932567L200.51443696404698,-7.763265755968079M-6.923143934974219,-18.2166725930107L-48.18003816624179,-17.809750086319994M-6.923143934974219,-18.2166725930107L-2.6345335190125736,-15.598477848492514" style="fill:none;stroke:rgb(0,0,0);stroke-width:1;stroke-linecap:round"></path><path d="M200.3883461780706,-7.840244376945885L200.3883461780706,-6.843259644020859L200.5144373709475,-6.766281027056369z" style="fill:rgb(255,21,29); fill-opacity: 0.4"></path><path d="M200.51443696404698,-6.766281023043053L200.3883457711701,-6.843259640007541L200.3883457711701,-7.840244372932569z" style="fill:rgb(91,60,255); fill-opacity: 0.4"></path><path d="M81.3711446516472,-14.990239704430369L81.3711446516472,11.320759169787566L84.69876354516678,-12.958729855378522z" style="fill:rgb(196,239,206); fill-opacity: 0.4"></path><path d="M62.42011439278343,3.655239663132157L62.42011439278343,0.6642855832069168M14.287067647824705,4.1299827134935025L62.42011217905382,3.65523977657948M62.42011217905382,0.664285577804398L62.42011217905382,3.65523977657948" style="fill:none;stroke:rgb(0,0,0);stroke-width:1;stroke-linecap:round"></path><path d="M200.3883461780706,-7.840244376945885L200.5144373709475,-6.766281027056369L200.5144373709475,-7.763265759981396z" style="fill:rgb(255,21,29); fill-opacity: 0.4"></path><path d="M200.51443696404698,-7.763265755968079L200.51443696404698,-6.766281023043053L200.3883457711701,-7.840244372932569z" style="fill:rgb(91,60,255); fill-opacity: 0.4"></path><path d="M14.287067647824705,1.1390285147184194L62.42011217905382,0.664285577804398" style="fill:none;stroke:rgb(0,0,0);stroke-width:1;stroke-linecap:round"></path><path d="M62.42011217905381,0.6642855778043985L62.04183860042322,0.4333497269109324L13.908794069194116,0.9080926638249537z" style="fill:rgb(91,60,255); fill-opacity: 0.4"></path><path d="M-6.923143934974222,-18.216672593010696L-6.923143934974223,15.692746555339816L-48.18003816624179,-17.809750086319994z" style="fill:rgb(196,239,206); fill-opacity: 0.4"></path><path d="M200.51443750226792,-6.766281229691001L200.51443750226792,-7.763265962616028M152.38139243281785,-6.291538086129031L200.51443696404698,-6.766281023043051M200.51443696404698,-7.763265755968079L200.51443696404698,-6.766281023043051M152.38139243281785,-7.288522819054057L200.51443696404698,-7.763265755968079" style="fill:none;stroke:rgb(0,0,0);stroke-width:1;stroke-linecap:round"></path><path d="M65.29538835457647,17.270030234237762L61.09377203054485,14.704945344008875L61.09377203054485,-18.516624165282362z" style="fill:rgb(196,239,206); fill-opacity: 0.4"></path><path d="M-68.45741187255133,-21.336135561865742L-68.45741187255133,19.48385612315554M-68.45741187255133,19.48385612315554L-109.7143061038189,19.89077862984625M-68.45741187255133,19.48385612315554L-63.29480378557778,22.635626055675825" style="fill:none;stroke:rgb(0,0,0);stroke-width:1;stroke-linecap:round"></path><path d="M62.42011217905381,3.65523977657948L14.287067647824701,4.129982713493502L62.04183860042322,3.4243039256860137zM62.04183860042322,3.4243039256860137L13.908794069194116,3.899046862600035L13.908794069194116,0.9080926638249537z" style="fill:rgb(91,60,255); fill-opacity: 0.4"></path><path d="M152.67218198224228,12.681837704652214L200.80522651347138,12.20709476773819M200.80522651347138,-14.103904106479742L200.80522651347138,12.20709476773819" style="fill:none;stroke:rgb(0,0,0);stroke-width:1;stroke-linecap:round"></path><path d="M-6.923143934974223,15.692746555339816L-48.18003816624179,16.09966906203052L-48.18003816624179,-17.809750086319994z" style="fill:rgb(196,239,206); fill-opacity: 0.4"></path><path d="M200.3883457711701,-7.840244372932569L200.3883457711701,-6.843259640007541L152.255301239941,-7.365501436018547zM200.51443696404698,-7.763265755968079L200.3883457711701,-7.840244372932569L152.255301239941,-7.365501436018547zM14.287067647824701,4.129982713493502L13.908794069194116,3.899046862600035L62.04183860042322,3.4243039256860137zM14.287067647824701,4.129982713493502L62.42011217905381,3.65523977657948L62.42011217905381,0.6642855778043985zM200.51443696404698,-6.766281023043053L152.38139243281785,-6.291538086129031L200.3883457711701,-6.843259640007541z" style="fill:rgb(91,60,255); fill-opacity: 0.4"></path><path d="M-48.18003816624179,-17.809750086319994L-48.18003816624179,16.09966906203052M-48.18003816624179,16.09966906203052L-43.891427750280144,18.717863806548706M131.82379331442212,-5.589798676606042L151.85330319578273,-4.174541783318629M131.82379331442212,-2.5988443589811188L151.85330319578273,-4.174541783318629M132.20206683292776,-2.367908544793918L151.85330319578273,-4.174541783318629M132.20206683292776,-5.3588628624188415L151.85330319578273,-4.174541783318629" style="fill:none;stroke:rgb(0,0,0);stroke-width:1;stroke-linecap:round"></path><path d="M152.38139243281785,-6.291538086129031L200.51443696404698,-6.766281023043053L200.51443696404698,-7.763265755968079z" style="fill:rgb(91,60,255); fill-opacity: 0.4"></path><path d="M132.83180807639593,-13.433472792292545L132.83180807639593,12.87752608192539L129.50418918287633,-15.464982641344388z" style="fill:rgb(196,239,206); fill-opacity: 0.4"></path><path d="M131.8237998981229,-2.5988443850928626L131.8237998981229,-5.589798583867944L151.8533097794835,-4.174541928280214z" style="fill:rgb(255,21,29); fill-opacity: 0.4"></path><path d="M131.8237994912224,-5.589798579854628L131.8237994912224,-2.5988443810795454M131.8237994912224,-2.5988443810795454L83.69075495999326,-2.1241014441655244M131.8237994912224,-2.5988443810795454L132.20207306985296,-2.3679085301860794M131.82379331442212,-5.589798676606042L131.82379331442212,-2.5988443589811188M131.82379331442212,-2.5988443589811188L132.20206683292776,-2.367908544793918M13.908794069194116,0.9080926638249531L13.908794069194116,3.8990468626000356M13.908794069194116,3.8990468626000356L14.287067647824705,4.1299827134935025" style="fill:none;stroke:rgb(0,0,0);stroke-width:1;stroke-linecap:round"></path><path d="M132.83180807639593,12.87752608192539L84.69876354516678,13.352269018839412L129.50418918287633,10.846016232873545z" style="fill:rgb(196,239,206); fill-opacity: 0.4"></path><path d="M152.67218198224228,-13.629161169565721L200.80522651347138,-14.103904106479742" style="fill:none;stroke:rgb(0,0,0);stroke-width:1;stroke-linecap:round"></path><path d="M14.287067647824701,1.1390285147184198L62.42011217905381,0.6642855778043985L13.908794069194116,0.9080926638249537z" style="fill:rgb(91,60,255); fill-opacity: 0.4"></path><path d="M131.8237994912224,-5.589798579854628L83.69075495999326,-5.115055642940606M131.8237994912224,-5.589798579854628L132.20207306985296,-5.358862728961162M131.82379331442212,-5.589798676606042L132.20206683292776,-5.3588628624188415M13.908794069194116,0.9080926638249531L14.287067647824705,1.1390285147184194" style="fill:none;stroke:rgb(0,0,0);stroke-width:1;stroke-linecap:round"></path><path d="M200.3883457711701,-6.843259640007541L152.255301239941,-6.36851670309352L152.255301239941,-7.365501436018547z" style="fill:rgb(91,60,255); fill-opacity: 0.4"></path><path d="M17.162343823347374,17.74477317115178L12.960727499315741,15.179688280922896L61.09377203054485,14.704945344008875z" style="fill:rgb(196,239,206); fill-opacity: 0.4"></path><path d="M132.20207347675347,-2.367908534199396L131.8237998981229,-2.5988443850928626L151.8533097794835,-4.174541928280214z" style="fill:rgb(255,21,29); fill-opacity: 0.4"></path><path d="M152.38139243281785,-6.291538086129031L152.255301239941,-6.36851670309352L200.3883457711701,-6.843259640007541z" style="fill:rgb(91,60,255); fill-opacity: 0.4"></path><path d="M131.8237998981229,-5.589798583867944L132.20207347675347,-5.358862732974478L151.8533097794835,-4.174541928280214z" style="fill:rgb(255,21,29); fill-opacity: 0.4"></path><path d="M152.67218198224228,12.681837704652214L200.80522651347138,12.207094767738191L200.80522651347138,-14.103904106479742z" style="fill:rgb(196,239,206); fill-opacity: 0.4"></path><path d="M-68.45741187255133,-21.336135561865742L-109.7143061038189,-20.929213055175037M-68.45741187255133,-21.336135561865742L-63.29480378557778,-18.184365629345457" style="fill:none;stroke:rgb(0,0,0);stroke-width:1;stroke-linecap:round"></path><path d="M131.8237998981229,-5.589798583867944L131.8237998981229,-2.5988443850928626L132.20207347675347,-2.367908534199396z" style="fill:rgb(255,21,29); fill-opacity: 0.4"></path><path d="M132.20207306985296,-2.36790853018608L131.8237994912224,-2.5988443810795463L131.8237994912224,-5.5897985798546275zM14.287067647824701,1.1390285147184198L14.287067647824701,4.129982713493502L62.42011217905381,0.6642855778043985zM152.38139243281785,-7.288522819054057L200.51443696404698,-7.763265755968079L152.255301239941,-7.365501436018547zM13.908794069194116,0.9080926638249537L13.908794069194116,3.899046862600035L14.287067647824701,1.1390285147184198z" style="fill:rgb(91,60,255); fill-opacity: 0.4"></path><path d="M65.29538835457647,-15.951539275053477L61.09377203054485,-18.516624165282362L12.960727499315741,-18.041881228368343z" style="fill:rgb(196,239,206); fill-opacity: 0.4"></path><path d="M152.38139243281785,-7.288522819054057L152.38139243281785,-6.291538086129031L200.51443696404698,-7.763265755968079z" style="fill:rgb(91,60,255); fill-opacity: 0.4"></path><path d="M-48.18003816624179,-17.809750086319994L-43.891427750280144,-15.19155534180181" style="fill:none;stroke:rgb(0,0,0);stroke-width:1;stroke-linecap:round"></path><path d="M-68.45741187255133,-21.336135561865742L-68.45741187255133,19.48385612315554L-109.71430610381888,-20.929213055175037z" style="fill:rgb(196,239,206); fill-opacity: 0.4"></path><path d="M132.20207347675347,-5.358862732974478L132.20207347675347,-2.367908534199396L151.8533097794835,-4.174541928280214z" style="fill:rgb(255,21,29); fill-opacity: 0.4"></path><path d="M13.908794069194116,3.899046862600035L14.287067647824701,4.129982713493502L14.287067647824701,1.1390285147184198z" style="fill:rgb(91,60,255); fill-opacity: 0.4"></path><path d="M131.8237998981229,-5.589798583867944L132.20207347675347,-2.367908534199396L132.20207347675347,-5.358862732974478z" style="fill:rgb(255,21,29); fill-opacity: 0.4"></path><path d="M132.20207306985296,-5.358862728961162L132.20207306985296,-2.36790853018608L131.8237994912224,-5.5897985798546275zM131.8237994912224,-5.5897985798546275L131.8237994912224,-2.5988443810795463L83.69075495999326,-5.115055642940606z" style="fill:rgb(91,60,255); fill-opacity: 0.4"></path><path d="M-68.45741187255133,19.48385612315554L-109.71430610381888,19.890778629846245L-109.71430610381888,-20.929213055175037z" style="fill:rgb(196,239,206); fill-opacity: 0.4"></path><path d="M152.255301239941,-7.365501436018547L152.255301239941,-6.368516703093519M152.255301239941,-6.368516703093519L152.38139243281785,-6.291538086129031M152.255301239941,-7.365501436018547L152.38139243281785,-7.288522819054057" style="fill:none;stroke:rgb(0,0,0);stroke-width:1;stroke-linecap:round"></path><path d="M152.255301239941,-7.365501436018547L152.255301239941,-6.36851670309352L152.38139243281785,-7.288522819054057z" style="fill:rgb(91,60,255); fill-opacity: 0.4"></path><path d="M84.06902853862384,-1.8931655932720581L132.20207306985296,-2.3679085301860794M132.20207306985296,-5.358862728961162L132.20207306985296,-2.3679085301860794M132.20206683292776,-2.367908544793918L132.20206683292776,-5.3588628624188415M14.287067647824705,1.1390285147184194L14.287067647824705,4.1299827134935025M-109.7143061038189,-20.929213055175037L-109.7143061038189,19.89077862984625M-109.7143061038189,19.89077862984625L-104.55169801684535,23.042548562366534" style="fill:none;stroke:rgb(0,0,0);stroke-width:1;stroke-linecap:round"></path><path d="M152.255301239941,-6.36851670309352L152.38139243281785,-6.291538086129031L152.38139243281785,-7.288522819054057z" style="fill:rgb(91,60,255); fill-opacity: 0.4"></path><path d="M84.06902853862384,-4.884119792047141L132.20207306985296,-5.358862728961162" style="fill:none;stroke:rgb(0,0,0);stroke-width:1;stroke-linecap:round"></path><path d="M132.20207306985296,-5.358862728961162L131.8237994912224,-5.5897985798546275L83.69075495999326,-5.115055642940606z" style="fill:rgb(91,60,255); fill-opacity: 0.4"></path><path d="M152.38139243281785,-7.288522819054057L152.38139243281785,-6.291538086129031" style="fill:none;stroke:rgb(0,0,0);stroke-width:1;stroke-linecap:round"></path><path d="M152.67218198224228,-13.629161169565721L152.67218198224228,12.681837704652214L200.80522651347138,-14.103904106479742z" style="fill:rgb(196,239,206); fill-opacity: 0.4"></path><path d="M132.20207306985296,-2.36790853018608L84.06902853862383,-1.8931655932720586L131.8237994912224,-2.5988443810795463zM131.8237994912224,-2.5988443810795463L83.69075495999326,-2.124101444165525L83.69075495999326,-5.115055642940606z" style="fill:rgb(91,60,255); fill-opacity: 0.4"></path><path d="M84.69876354516678,-12.958729855378522L132.83180807639593,-13.433472792292545L81.3711446516472,-14.990239704430369z" style="fill:rgb(196,239,206); fill-opacity: 0.4"></path><path d="M152.67218198224228,-13.629161169565721L152.67218198224228,12.681837704652214" style="fill:none;stroke:rgb(0,0,0);stroke-width:1;stroke-linecap:round"></path><path d="M12.960727499315741,-18.041881228368343L12.960727499315741,15.179688280922896L17.162343823347374,-15.476796338139458zM81.3711446516472,11.320759169787566L84.69876354516678,13.352269018839412L84.69876354516678,-12.958729855378522z" style="fill:rgb(196,239,206); fill-opacity: 0.4"></path><path d="M84.06902853862383,-1.8931655932720586L83.69075495999326,-2.124101444165525L131.8237994912224,-2.5988443810795463zM84.06902853862383,-1.8931655932720586L132.20207306985296,-2.36790853018608L132.20207306985296,-5.358862728961162z" style="fill:rgb(91,60,255); fill-opacity: 0.4"></path><path d="M-129.57535197131517,-20.909598889027517L-129.57535197131517,20.23730021978872M-129.57535197131517,20.23730021978872L-163.95609968687205,20.576402333580706M-129.57535197131517,20.23730021978872L-124.37139907166262,23.4143111419933" style="fill:none;stroke:rgb(0,0,0);stroke-width:1;stroke-linecap:round"></path><path d="M-2.6345335190125754,18.310941299858L-6.923143934974223,15.692746555339816L-6.923143934974222,-18.216672593010696z" style="fill:rgb(196,239,206); fill-opacity: 0.4"></path><path d="M83.69075495999326,-5.115055642940606L83.69075495999326,-2.1241014441655244M83.69075495999326,-2.1241014441655244L84.06902853862384,-1.8931655932720581M-109.7143061038189,-20.929213055175037L-104.55169801684535,-17.777443122654752" style="fill:none;stroke:rgb(0,0,0);stroke-width:1;stroke-linecap:round"></path><path d="M84.06902853862383,-4.88411979204714L132.20207306985296,-5.358862728961162L83.69075495999326,-5.115055642940606z" style="fill:rgb(91,60,255); fill-opacity: 0.4"></path><path d="M83.69075495999326,-5.115055642940606L84.06902853862384,-4.884119792047141M84.69876354516681,13.352269018839412L132.83180807639593,12.877526081925389M132.83180807639593,-13.433472792292545L132.83180807639593,12.877526081925389M-5.172944800913628,6.997635210578443L14.798956133754443,7.713135183483584M-5.172944800913628,8.9916046764285L14.798956133754443,7.713135183483584M-4.920762430191147,9.14556190118091L14.798956133754443,7.713135183483584M-4.920762430191147,7.151592435330854L14.798956133754443,7.713135183483584" style="fill:none;stroke:rgb(0,0,0);stroke-width:1;stroke-linecap:round"></path><path d="M84.06902853862383,-4.88411979204714L84.06902853862383,-1.8931655932720586L132.20207306985296,-5.358862728961162zM83.69075495999326,-5.115055642940606L83.69075495999326,-2.124101444165525L84.06902853862383,-4.88411979204714z" style="fill:rgb(91,60,255); fill-opacity: 0.4"></path><path d="M-5.172944584135221,8.991604684139432L-5.172944584135221,6.9976352182893775L14.798956363401352,7.713134926932434z" style="fill:rgb(255,21,29); fill-opacity: 0.4"></path><path d="M-5.172944800913628,6.997635210578443L-5.172944800913628,8.9916046764285M-5.172944800913628,8.9916046764285L-4.920762430191147,9.14556190118091M-5.1729454735143525,6.997635227061449L-5.1729454735143525,8.991604692911503M-5.1729454735143525,8.991604692911503L-46.42983970478193,9.39852719960221M-5.1729454735143525,8.991604692911503L-4.920763087760631,9.145561926840482" style="fill:none;stroke:rgb(0,0,0);stroke-width:1;stroke-linecap:round"></path><path d="M83.69075495999326,-2.124101444165525L84.06902853862383,-1.8931655932720586L84.06902853862383,-4.88411979204714z" style="fill:rgb(91,60,255); fill-opacity: 0.4"></path><path d="M-5.172944800913628,6.997635210578443L-4.920762430191147,7.151592435330854M-5.1729454735143525,6.997635227061449L-46.42983970478193,7.404557733752154M-5.1729454735143525,6.997635227061449L-4.920763087760631,7.151592460990426" style="fill:none;stroke:rgb(0,0,0);stroke-width:1;stroke-linecap:round"></path><path d="M-4.920762198381498,9.14556191806841L-5.172944584135221,8.991604684139432L14.798956363401352,7.713134926932434zM-5.172944584135221,6.9976352182893775L-4.920762198381498,7.151592452218355L14.798956363401352,7.713134926932434z" style="fill:rgb(255,21,29); fill-opacity: 0.4"></path><path d="M-43.89142775028014,18.717863806548706L-48.18003816624179,16.09966906203052L-6.923143934974223,15.692746555339816z" style="fill:rgb(196,239,206); fill-opacity: 0.4"></path><path d="M-129.57535197131517,-20.909598889027517L-163.95609968687205,-20.570496775235533M-129.57535197131517,-20.909598889027517L-124.37139907166262,-17.73258796682294M84.69876354516681,-12.958729855378522L132.83180807639593,-13.433472792292545" style="fill:none;stroke:rgb(0,0,0);stroke-width:1;stroke-linecap:round"></path><path d="M-5.172944584135221,6.9976352182893775L-5.172944584135221,8.991604684139432L-4.920762198381498,9.14556191806841z" style="fill:rgb(255,21,29); fill-opacity: 0.4"></path><path d="M-4.920763087760632,9.14556192684048L-5.172945473514355,8.991604692911503L-5.172945473514355,6.997635227061449z" style="fill:rgb(91,60,255); fill-opacity: 0.4"></path><path d="M-129.57535197131517,-20.909598889027517L-129.57535197131517,20.23730021978872L-163.95609968687205,-20.570496775235533z" style="fill:rgb(196,239,206); fill-opacity: 0.4"></path><path d="M-4.920762198381498,7.151592452218355L-4.920762198381498,9.14556191806841L14.798956363401352,7.713134926932434z" style="fill:rgb(255,21,29); fill-opacity: 0.4"></path><path d="M84.06902853862384,-4.884119792047141L84.06902853862384,-1.8931655932720581" style="fill:none;stroke:rgb(0,0,0);stroke-width:1;stroke-linecap:round"></path><path d="M65.29538835457647,-15.951539275053477L65.29538835457647,17.270030234237762L61.09377203054485,-18.516624165282362zM-129.57535197131517,20.23730021978872L-163.95609968687205,20.576402333580706L-163.95609968687205,-20.570496775235533zM-2.634533519012575,-15.598477848492513L-6.923143934974222,-18.216672593010696L-48.18003816624179,-17.809750086319994zM84.69876354516678,13.352269018839412L132.83180807639593,12.87752608192539L132.83180807639593,-13.433472792292545z" style="fill:rgb(196,239,206); fill-opacity: 0.4"></path><path d="M-5.172944584135221,6.9976352182893775L-4.920762198381498,9.14556191806841L-4.920762198381498,7.151592452218355z" style="fill:rgb(255,21,29); fill-opacity: 0.4"></path><path d="M-4.920763087760632,7.151592460990426L-4.920763087760632,9.14556192684048L-5.172945473514355,6.997635227061449z" style="fill:rgb(91,60,255); fill-opacity: 0.4"></path><path d="M65.29538835457647,17.270030234237762L17.162343823347374,17.74477317115178L61.09377203054485,14.704945344008875z" style="fill:rgb(196,239,206); fill-opacity: 0.4"></path><path d="M-163.95609968687205,-20.570496775235533L-163.95609968687205,20.576402333580706M-163.95609968687205,20.576402333580706L-158.75214678721952,23.753413255785283" style="fill:none;stroke:rgb(0,0,0);stroke-width:1;stroke-linecap:round"></path><path d="M-5.172945473514355,6.997635227061449L-5.172945473514355,8.991604692911503L-46.42983970478193,7.404557733752154z" style="fill:rgb(91,60,255); fill-opacity: 0.4"></path><path d="M-4.920762430191147,9.14556190118091L-4.920762430191147,7.151592435330854M-46.17765731902821,9.552484433531188L-4.920763087760631,9.145561926840482M-4.920763087760631,7.151592460990426L-4.920763087760631,9.145561926840482M-46.17765731902821,7.558514967681132L-4.920763087760631,7.151592460990426" style="fill:none;stroke:rgb(0,0,0);stroke-width:1;stroke-linecap:round"></path><path d="M-4.920763087760632,7.151592460990426L-5.172945473514355,6.997635227061449L-46.42983970478193,7.404557733752154zM-4.920763087760632,9.14556192684048L-46.17765731902821,9.552484433531186L-5.172945473514355,8.991604692911503zM-5.172945473514355,8.991604692911503L-46.42983970478193,9.398527199602208L-46.42983970478193,7.404557733752154zM-46.17765731902821,9.552484433531186L-4.920763087760632,9.14556192684048L-4.920763087760632,7.151592460990426z" style="fill:rgb(91,60,255); fill-opacity: 0.4"></path><path d="M-48.18003816624179,-17.809750086319994L-48.18003816624179,16.09966906203052L-43.89142775028014,-15.19155534180181zM84.69876354516678,-12.958729855378522L84.69876354516678,13.352269018839412L132.83180807639593,-13.433472792292545z" style="fill:rgb(196,239,206); fill-opacity: 0.4"></path><path d="M-46.17765731902821,9.552484433531186L-46.42983970478193,9.398527199602208L-5.172945473514355,8.991604692911503z" style="fill:rgb(91,60,255); fill-opacity: 0.4"></path><path d="M-183.796471738382,-20.374808416251938L-183.796471738382,20.772090692564305M-183.796471738382,20.772090692564305L-218.17721945393887,21.11119280635629M-183.796471738382,20.772090692564305L-178.59251883872946,23.94910161476888" style="fill:none;stroke:rgb(0,0,0);stroke-width:1;stroke-linecap:round"></path><path d="M-63.29480378557777,22.635626055675825L-68.45741187255133,19.48385612315554L-68.45741187255133,-21.336135561865742z" style="fill:rgb(196,239,206); fill-opacity: 0.4"></path><path d="M84.69876354516681,-12.958729855378522L84.69876354516681,13.352269018839412M-163.95609968687205,-20.570496775235533L-158.75214678721952,-17.393485853030956" style="fill:none;stroke:rgb(0,0,0);stroke-width:1;stroke-linecap:round"></path><path d="M-46.17765731902821,7.5585149676811305L-4.920763087760632,7.151592460990426L-46.42983970478193,7.404557733752154z" style="fill:rgb(91,60,255); fill-opacity: 0.4"></path><path d="M-46.42983970478193,7.404557733752154L-46.42983970478193,9.39852719960221M-46.42983970478193,9.39852719960221L-46.17765731902821,9.552484433531188M-46.42983970478193,7.404557733752154L-46.17765731902821,7.558514967681132" style="fill:none;stroke:rgb(0,0,0);stroke-width:1;stroke-linecap:round"></path><path d="M-46.17765731902821,7.5585149676811305L-46.17765731902821,9.552484433531186L-4.920763087760632,7.151592460990426zM-46.42983970478193,7.404557733752154L-46.42983970478193,9.398527199602208L-46.17765731902821,7.5585149676811305z" style="fill:rgb(91,60,255); fill-opacity: 0.4"></path><path d="M17.162343823347374,-15.476796338139458L65.29538835457647,-15.951539275053477L12.960727499315741,-18.041881228368343zM12.960727499315741,15.179688280922896L17.162343823347374,17.74477317115178L17.162343823347374,-15.476796338139458z" style="fill:rgb(196,239,206); fill-opacity: 0.4"></path><path d="M-46.42983970478193,9.398527199602208L-46.17765731902821,9.552484433531186L-46.17765731902821,7.5585149676811305z" style="fill:rgb(91,60,255); fill-opacity: 0.4"></path><path d="M-104.55169801684535,23.04254856236653L-109.71430610381888,19.890778629846245L-68.45741187255133,19.48385612315554z" style="fill:rgb(196,239,206); fill-opacity: 0.4"></path><path d="M-46.17765731902821,7.558514967681132L-46.17765731902821,9.552484433531188M-183.796471738382,-20.374808416251938L-218.17721945393887,-20.035706302459953M-183.796471738382,-20.374808416251938L-178.59251883872946,-17.19779749404736M-128.3250508920393,-10.36519373204263L-108.41139412433046,-9.935866179674996M-128.3250508920393,-9.368208999117604L-108.41139412433046,-9.935866179674996M-128.19895969916243,-9.291230382153115L-108.41139412433046,-9.935866179674996M-128.19895969916243,-10.28821511507814L-108.41139412433046,-9.935866179674996" style="fill:none;stroke:rgb(0,0,0);stroke-width:1;stroke-linecap:round"></path><path d="M-183.79647173838205,-20.374808416251938L-183.79647173838205,20.772090692564305L-218.17721945393887,-20.035706302459953zM-183.79647173838205,20.772090692564305L-218.17721945393887,21.11119280635629L-218.17721945393887,-20.035706302459953zM-63.29480378557777,-18.184365629345457L-68.45741187255133,-21.336135561865742L-109.71430610381888,-20.929213055175037z" style="fill:rgb(196,239,206); fill-opacity: 0.4"></path><path d="M-218.17721945393887,-20.035706302459953L-218.17721945393887,21.11119280635629M-218.17721945393887,21.11119280635629L-212.9732665542863,24.288203728560866" style="fill:none;stroke:rgb(0,0,0);stroke-width:1;stroke-linecap:round"></path><path d="M-128.3250494368175,-9.368208928474843L-128.3250494368175,-10.36519366139987L-108.41139268161251,-9.93586593969472zM-128.19895824394064,-9.291230311510352L-128.3250494368175,-9.368208928474843L-108.41139268161251,-9.93586593969472zM-128.3250494368175,-10.36519366139987L-128.19895824394064,-10.288215044435379L-108.41139268161251,-9.93586593969472z" style="fill:rgb(255,21,29); fill-opacity: 0.4"></path><path d="M-128.3250508920393,-10.36519373204263L-128.3250508920393,-9.368208999117604M-128.3250508920393,-9.368208999117604L-128.19895969916243,-9.291230382153115M-128.32504891654986,-10.365193666531342L-128.32504891654986,-9.368208933606315M-128.32504891654986,-9.368208933606315L-162.70579663210674,-9.02910681981433M-128.32504891654986,-9.368208933606315L-128.19895772367298,-9.291230316641826" style="fill:none;stroke:rgb(0,0,0);stroke-width:1;stroke-linecap:round"></path><path d="M-128.19895824394064,-10.288215044435379L-128.19895824394064,-9.291230311510352L-108.41139268161251,-9.93586593969472z" style="fill:rgb(255,21,29); fill-opacity: 0.4"></path><path d="M-128.3250508920393,-10.36519373204263L-128.19895969916243,-10.28821511507814M-128.32504891654986,-10.365193666531342L-162.70579663210674,-10.026091552739357M-128.32504891654986,-10.365193666531342L-128.19895772367298,-10.288215049566853" style="fill:none;stroke:rgb(0,0,0);stroke-width:1;stroke-linecap:round"></path><path d="M-128.19895772367298,-9.291230316641826L-128.32504891654983,-9.368208933606315L-128.32504891654983,-10.365193666531342z" style="fill:rgb(91,60,255); fill-opacity: 0.4"></path><path d="M-128.3250494368175,-10.36519366139987L-128.3250494368175,-9.368208928474843L-128.19895824394064,-9.291230311510352z" style="fill:rgb(255,21,29); fill-opacity: 0.4"></path><path d="M-2.6345335190125754,18.310941299858L-43.89142775028014,18.717863806548706L-6.923143934974223,15.692746555339816zM-2.634533519012575,-15.598477848492513L-2.6345335190125754,18.310941299858L-6.923143934974222,-18.216672593010696z" style="fill:rgb(196,239,206); fill-opacity: 0.4"></path><path d="M-128.19895772367298,-10.288215049566853L-128.19895772367298,-9.291230316641826L-128.32504891654983,-10.365193666531342z" style="fill:rgb(91,60,255); fill-opacity: 0.4"></path><path d="M-128.3250494368175,-10.36519366139987L-128.19895824394064,-9.291230311510352L-128.19895824394064,-10.288215044435379z" style="fill:rgb(255,21,29); fill-opacity: 0.4"></path><path d="M17.162343823347374,17.744773171151785L65.29538835457649,17.270030234237762M65.29538835457649,-15.951539275053477L65.29538835457649,17.270030234237762M-128.19895969916243,-9.291230382153115L-128.19895969916243,-10.28821511507814M-162.57970543922985,-8.952128202849842L-128.19895772367298,-9.291230316641826M-128.19895772367298,-10.288215049566853L-128.19895772367298,-9.291230316641826M-162.57970543922985,-9.94911293577487L-128.19895772367298,-10.288215049566853" style="fill:none;stroke:rgb(0,0,0);stroke-width:1;stroke-linecap:round"></path><path d="M-109.71430610381888,-20.929213055175037L-109.71430610381888,19.890778629846245L-104.55169801684535,-17.777443122654752z" style="fill:rgb(196,239,206); fill-opacity: 0.4"></path><path d="M-128.32504891654983,-10.365193666531342L-128.32504891654983,-9.368208933606315L-162.7057966321067,-10.026091552739357zM-128.19895772367298,-10.288215049566853L-128.32504891654983,-10.365193666531342L-162.7057966321067,-10.026091552739357zM-128.19895772367298,-9.291230316641826L-162.57970543922985,-8.952128202849842L-128.32504891654983,-9.368208933606315z" style="fill:rgb(91,60,255); fill-opacity: 0.4"></path><path d="M-218.17721945393887,-20.035706302459953L-212.9732665542863,-16.858695380255377" style="fill:none;stroke:rgb(0,0,0);stroke-width:1;stroke-linecap:round"></path><path d="M-162.57970543922985,-8.952128202849842L-128.19895772367298,-9.291230316641826L-128.19895772367298,-10.288215049566853z" style="fill:rgb(91,60,255); fill-opacity: 0.4"></path><path d="M-124.37139907166262,23.4143111419933L-129.57535197131517,20.23730021978872L-129.57535197131517,-20.909598889027517z" style="fill:rgb(196,239,206); fill-opacity: 0.4"></path><path d="M-128.32504891654983,-9.368208933606315L-162.7057966321067,-9.02910681981433L-162.7057966321067,-10.026091552739357zM-162.57970543922985,-8.952128202849842L-162.7057966321067,-9.02910681981433L-128.32504891654983,-9.368208933606315z" style="fill:rgb(91,60,255); fill-opacity: 0.4"></path><path d="M-65.31855471264818,15.815482767191378L-45.415451383233574,14.390550516470945M-65.31855471264818,18.80643696596646L-45.415451383233574,14.390550516470945M-64.9402811340176,19.037372816859925L-45.415451383233574,14.390550516470945M-64.9402811340176,16.046418618084843L-45.415451383233574,14.390550516470945M17.162343823347374,-15.476796338139454L65.29538835457649,-15.951539275053477" style="fill:none;stroke:rgb(0,0,0);stroke-width:1;stroke-linecap:round"></path><path d="M-162.57970543922985,-9.949112935774869L-128.19895772367298,-10.288215049566853L-162.7057966321067,-10.026091552739357z" style="fill:rgb(91,60,255); fill-opacity: 0.4"></path><path d="M17.162343823347374,17.74477317115178L65.29538835457647,17.270030234237762L65.29538835457647,-15.951539275053477z" style="fill:rgb(196,239,206); fill-opacity: 0.4"></path><path d="M-162.57970543922985,-9.949112935774869L-162.57970543922985,-8.952128202849842L-128.19895772367298,-10.288215049566853z" style="fill:rgb(91,60,255); fill-opacity: 0.4"></path><path d="M-158.75214678721952,23.753413255785283L-163.95609968687205,20.576402333580706L-129.57535197131517,20.23730021978872z" style="fill:rgb(196,239,206); fill-opacity: 0.4"></path><path d="M-162.70579663210674,-10.026091552739357L-162.70579663210674,-9.02910681981433M-162.70579663210674,-9.02910681981433L-162.57970543922985,-8.952128202849842M-162.70579663210674,-10.026091552739357L-162.57970543922985,-9.94911293577487" style="fill:none;stroke:rgb(0,0,0);stroke-width:1;stroke-linecap:round"></path><path d="M-65.3185515131565,18.80643695891845L-65.3185515131565,15.81548276014337L-45.415452000120546,14.390550948499744z" style="fill:rgb(255,21,29); fill-opacity: 0.4"></path><path d="M-162.7057966321067,-10.026091552739357L-162.7057966321067,-9.02910681981433L-162.57970543922985,-9.949112935774869z" style="fill:rgb(91,60,255); fill-opacity: 0.4"></path><path d="M-48.18003816624179,16.09966906203052L-43.89142775028014,18.717863806548706L-43.89142775028014,-15.19155534180181zM-43.89142775028014,-15.19155534180181L-2.634533519012575,-15.598477848492513L-48.18003816624179,-17.809750086319994z" style="fill:rgb(196,239,206); fill-opacity: 0.4"></path><path d="M-162.7057966321067,-9.02910681981433L-162.57970543922985,-8.952128202849842L-162.57970543922985,-9.949112935774869z" style="fill:rgb(91,60,255); fill-opacity: 0.4"></path><path d="M-65.31855240253564,15.81548276891544L-65.31855240253564,18.806436967690523M-65.31855240253564,18.806436967690523L-106.57544663380321,19.213359474381228M-65.31855240253564,18.806436967690523L-64.94027882390506,19.03737281858399M-65.31855471264818,15.815482767191378L-65.31855471264818,18.80643696596646M-65.31855471264818,18.80643696596646L-64.9402811340176,19.037372816859925M-65.31855240253564,15.81548276891544L-106.57544663380321,16.222405275606146M-65.31855240253564,15.81548276891544L-64.94027882390506,16.046418619808904M-65.31855471264818,15.815482767191378L-64.9402811340176,16.046418618084843M-162.57970543922985,-9.94911293577487L-162.57970543922985,-8.952128202849842" style="fill:none;stroke:rgb(0,0,0);stroke-width:1;stroke-linecap:round"></path><path d="M-64.94027793452592,19.037372809811917L-65.3185515131565,18.80643695891845L-45.415452000120546,14.390550948499744zM-65.3185515131565,15.81548276014337L-64.94027793452592,16.046418611036838L-45.415452000120546,14.390550948499744z" style="fill:rgb(255,21,29); fill-opacity: 0.4"></path><path d="M-124.37139907166262,-17.73258796682294L-129.57535197131517,-20.909598889027517L-163.95609968687205,-20.570496775235533z" style="fill:rgb(196,239,206); fill-opacity: 0.4"></path><path d="M-65.3185515131565,15.81548276014337L-65.3185515131565,18.80643695891845L-64.94027793452592,19.037372809811917z" style="fill:rgb(255,21,29); fill-opacity: 0.4"></path><path d="M-64.94027882390505,19.03737281858399L-65.31855240253564,18.806436967690523L-65.31855240253564,15.815482768915441z" style="fill:rgb(91,60,255); fill-opacity: 0.4"></path><path d="M-64.94027793452592,16.046418611036838L-64.94027793452592,19.037372809811917L-45.415452000120546,14.390550948499744z" style="fill:rgb(255,21,29); fill-opacity: 0.4"></path><path d="M17.162343823347374,-15.476796338139458L17.162343823347374,17.74477317115178L65.29538835457647,-15.951539275053477z" style="fill:rgb(196,239,206); fill-opacity: 0.4"></path><path d="M-65.31855240253564,15.815482768915441L-65.31855240253564,18.806436967690523L-106.57544663380321,16.222405275606146z" style="fill:rgb(91,60,255); fill-opacity: 0.4"></path><path d="M17.162343823347374,-15.476796338139454L17.162343823347374,17.744773171151785" style="fill:none;stroke:rgb(0,0,0);stroke-width:1;stroke-linecap:round"></path><path d="M-65.3185515131565,15.81548276014337L-64.94027793452592,19.037372809811917L-64.94027793452592,16.046418611036838z" style="fill:rgb(255,21,29); fill-opacity: 0.4"></path><path d="M-64.94027882390505,16.046418619808907L-64.94027882390505,19.03737281858399L-65.31855240253564,15.815482768915441z" style="fill:rgb(91,60,255); fill-opacity: 0.4"></path><path d="M-163.95609968687205,-20.570496775235533L-163.95609968687205,20.576402333580706L-158.75214678721952,-17.393485853030956z" style="fill:rgb(196,239,206); fill-opacity: 0.4"></path><path d="M-64.94027882390505,16.046418619808907L-65.31855240253564,15.815482768915441L-106.57544663380321,16.222405275606146z" style="fill:rgb(91,60,255); fill-opacity: 0.4"></path><path d="M-106.19717305517263,19.444295325274695L-64.94027882390506,19.03737281858399M-64.94027882390506,16.046418619808904L-64.94027882390506,19.03737281858399M-64.9402811340176,19.037372816859925L-64.9402811340176,16.046418618084843M-106.19717305517263,16.453341126499613L-64.94027882390506,16.046418619808904" style="fill:none;stroke:rgb(0,0,0);stroke-width:1;stroke-linecap:round"></path><path d="M-65.31855240253564,18.806436967690523L-106.57544663380321,19.213359474381228L-106.57544663380321,16.222405275606146zM-64.94027882390505,19.03737281858399L-106.19717305517263,19.444295325274695L-65.31855240253564,18.806436967690523z" style="fill:rgb(91,60,255); fill-opacity: 0.4"></path><path d="M-63.29480378557777,22.635626055675825L-104.55169801684535,23.04254856236653L-68.45741187255133,19.48385612315554zM-178.59251883872946,23.94910161476888L-183.79647173838205,20.772090692564305L-183.79647173838205,-20.374808416251938zM-63.29480378557777,-18.184365629345457L-63.29480378557777,22.635626055675825L-68.45741187255133,-21.336135561865742z" style="fill:rgb(196,239,206); fill-opacity: 0.4"></path><path d="M-106.19717305517263,19.444295325274695L-106.57544663380321,19.213359474381228L-65.31855240253564,18.806436967690523z" style="fill:rgb(91,60,255); fill-opacity: 0.4"></path><path d="M-43.891427750280144,18.717863806548706L-2.6345335190125736,18.310941299857998M-2.6345335190125736,-15.598477848492514L-2.6345335190125736,18.310941299857998" style="fill:none;stroke:rgb(0,0,0);stroke-width:1;stroke-linecap:round"></path><path d="M-106.19717305517263,19.444295325274695L-64.94027882390505,19.03737281858399L-64.94027882390505,16.046418619808907z" style="fill:rgb(91,60,255); fill-opacity: 0.4"></path><path d="M-106.57544663380321,16.222405275606146L-106.57544663380321,19.213359474381228M-106.57544663380321,19.213359474381228L-106.19717305517263,19.444295325274695M-106.57544663380321,16.222405275606146L-106.19717305517263,16.453341126499613" style="fill:none;stroke:rgb(0,0,0);stroke-width:1;stroke-linecap:round"></path><path d="M-106.19717305517263,16.453341126499613L-64.94027882390505,16.046418619808907L-106.57544663380321,16.222405275606146z" style="fill:rgb(91,60,255); fill-opacity: 0.4"></path><path d="M-212.9732665542863,24.288203728560866L-218.17721945393887,21.11119280635629L-183.79647173838205,20.772090692564305z" style="fill:rgb(196,239,206); fill-opacity: 0.4"></path><path d="M-106.57544663380321,16.222405275606146L-106.57544663380321,19.213359474381228L-106.19717305517263,16.453341126499613zM-106.19717305517263,16.453341126499613L-106.19717305517263,19.444295325274695L-64.94027882390505,16.046418619808907zM-106.57544663380321,19.213359474381228L-106.19717305517263,19.444295325274695L-106.19717305517263,16.453341126499613z" style="fill:rgb(91,60,255); fill-opacity: 0.4"></path><path d="M-43.89142775028014,18.717863806548706L-2.6345335190125754,18.310941299858L-2.634533519012575,-15.598477848492513z" style="fill:rgb(196,239,206); fill-opacity: 0.4"></path><path d="M-43.891427750280144,-15.19155534180181L-2.6345335190125736,-15.598477848492514" style="fill:none;stroke:rgb(0,0,0);stroke-width:1;stroke-linecap:round"></path><path d="M-178.59251883872946,-17.19779749404736L-183.79647173838205,-20.374808416251938L-218.17721945393887,-20.035706302459953z" style="fill:rgb(196,239,206); fill-opacity: 0.4"></path><path d="M-106.19717305517263,16.453341126499613L-106.19717305517263,19.444295325274695" style="fill:none;stroke:rgb(0,0,0);stroke-width:1;stroke-linecap:round"></path><path d="M-109.71430610381888,19.890778629846245L-104.55169801684535,23.04254856236653L-104.55169801684535,-17.777443122654752zM-104.55169801684535,-17.777443122654752L-63.29480378557777,-18.184365629345457L-109.71430610381888,-20.929213055175037zM-218.17721945393887,-20.035706302459953L-218.17721945393887,21.11119280635629L-212.9732665542863,-16.858695380255377z" style="fill:rgb(196,239,206); fill-opacity: 0.4"></path><path d="M-43.891427750280144,-15.19155534180181L-43.891427750280144,18.717863806548706" style="fill:none;stroke:rgb(0,0,0);stroke-width:1;stroke-linecap:round"></path><path d="M-43.89142775028014,-15.19155534180181L-43.89142775028014,18.717863806548706L-2.634533519012575,-15.598477848492513zM-124.37139907166262,23.4143111419933L-158.75214678721952,23.753413255785283L-129.57535197131517,20.23730021978872zM-124.37139907166262,-17.73258796682294L-124.37139907166262,23.4143111419933L-129.57535197131517,-20.909598889027517zM-163.95609968687205,20.576402333580706L-158.75214678721952,23.753413255785283L-158.75214678721952,-17.393485853030956z" style="fill:rgb(196,239,206); fill-opacity: 0.4"></path><path d="M-104.55169801684535,23.042548562366534L-63.29480378557778,22.635626055675825M-63.29480378557778,-18.184365629345457L-63.29480378557778,22.635626055675825" style="fill:none;stroke:rgb(0,0,0);stroke-width:1;stroke-linecap:round"></path><path d="M-158.75214678721952,-17.393485853030956L-124.37139907166262,-17.73258796682294L-163.95609968687205,-20.570496775235533z" style="fill:rgb(196,239,206); fill-opacity: 0.4"></path><path d="M-180.42049320253204,-6.897013213932364L-160.39098332117146,-5.481756558344634M-180.42049320253204,-3.906059015157282L-160.39098332117146,-5.481756558344634M-180.0422195637765,-3.675123127557551L-160.39098332117146,-5.481756558344634M-180.0422195637765,-6.666077326332633L-160.39098332117146,-5.481756558344634" style="fill:none;stroke:rgb(0,0,0);stroke-width:1;stroke-linecap:round"></path><path d="M-180.42048696986853,-3.906058837142859L-180.42048696986853,-6.897013035917943L-160.39097708850792,-5.481756380330211z" style="fill:rgb(255,21,29); fill-opacity: 0.4"></path><path d="M-180.42048644960087,-6.897013041049413L-180.42048644960087,-3.9060588422743314M-180.42048644960087,-3.9060588422743314L-214.80123416515772,-3.566956728482347M-180.42048644960087,-3.9060588422743314L-180.04221287097027,-3.675122991380865M-180.42049320253204,-6.897013213932364L-180.42049320253204,-3.906059015157282M-180.42049320253204,-3.906059015157282L-180.0422195637765,-3.675123127557551" style="fill:none;stroke:rgb(0,0,0);stroke-width:1;stroke-linecap:round"></path><path d="M-178.59251883872946,23.94910161476888L-212.9732665542863,24.288203728560866L-183.79647173838205,20.772090692564305z" style="fill:rgb(196,239,206); fill-opacity: 0.4"></path><path d="M-180.42048644960087,-6.897013041049413L-214.80123416515772,-6.557910927257429M-180.42048644960087,-6.897013041049413L-180.04221287097027,-6.666077190155948M-180.42049320253204,-6.897013213932364L-180.0422195637765,-6.666077326332633" style="fill:none;stroke:rgb(0,0,0);stroke-width:1;stroke-linecap:round"></path><path d="M-104.55169801684535,23.04254856236653L-63.29480378557777,22.635626055675825L-63.29480378557777,-18.184365629345457z" style="fill:rgb(196,239,206); fill-opacity: 0.4"></path><path d="M-104.55169801684535,-17.777443122654752L-63.29480378557778,-18.184365629345457" style="fill:none;stroke:rgb(0,0,0);stroke-width:1;stroke-linecap:round"></path><path d="M-180.04221339123796,-3.6751229862493937L-180.42048696986853,-3.906058837142859L-160.39097708850792,-5.481756380330211z" style="fill:rgb(255,21,29); fill-opacity: 0.4"></path><path d="M-178.59251883872946,-17.19779749404736L-178.59251883872946,23.94910161476888L-183.79647173838205,-20.374808416251938z" style="fill:rgb(196,239,206); fill-opacity: 0.4"></path><path d="M-180.42048696986853,-6.897013035917943L-180.04221339123796,-6.666077185024476L-160.39097708850792,-5.481756380330211z" style="fill:rgb(255,21,29); fill-opacity: 0.4"></path><path d="M-180.04221287097027,-3.675122991380866L-180.42048644960087,-3.9060588422743323L-180.42048644960087,-6.897013041049415z" style="fill:rgb(91,60,255); fill-opacity: 0.4"></path><path d="M-180.42048696986853,-6.897013035917943L-180.42048696986853,-3.906058837142859L-180.04221339123796,-3.6751229862493937z" style="fill:rgb(255,21,29); fill-opacity: 0.4"></path><path d="M-180.42048644960087,-6.897013041049415L-180.42048644960087,-3.9060588422743323L-214.80123416515772,-6.5579109272574305z" style="fill:rgb(91,60,255); fill-opacity: 0.4"></path><path d="M-180.04221339123796,-6.666077185024476L-180.04221339123796,-3.6751229862493937L-160.39097708850792,-5.481756380330211z" style="fill:rgb(255,21,29); fill-opacity: 0.4"></path><path d="M-180.04221287097027,-6.666077190155948L-180.04221287097027,-3.675122991380866L-180.42048644960087,-6.897013041049415z" style="fill:rgb(91,60,255); fill-opacity: 0.4"></path><path d="M-180.42048696986853,-6.897013035917943L-180.04221339123796,-3.6751229862493937L-180.04221339123796,-6.666077185024476z" style="fill:rgb(255,21,29); fill-opacity: 0.4"></path><path d="M-180.04221287097027,-6.666077190155948L-180.42048644960087,-6.897013041049415L-214.80123416515772,-6.5579109272574305z" style="fill:rgb(91,60,255); fill-opacity: 0.4"></path><path d="M-104.55169801684535,-17.777443122654752L-104.55169801684535,23.042548562366534M-214.42296058652713,-3.3360208775888807L-180.04221287097027,-3.675122991380865M-180.04221287097027,-6.666077190155948L-180.04221287097027,-3.675122991380865M-180.0422195637765,-3.675123127557551L-180.0422195637765,-6.666077326332633" style="fill:none;stroke:rgb(0,0,0);stroke-width:1;stroke-linecap:round"></path><path d="M-180.42048644960087,-3.9060588422743323L-214.80123416515772,-3.566956728482348L-214.80123416515772,-6.5579109272574305z" style="fill:rgb(91,60,255); fill-opacity: 0.4"></path><path d="M-104.55169801684535,-17.777443122654752L-104.55169801684535,23.04254856236653L-63.29480378557777,-18.184365629345457z" style="fill:rgb(196,239,206); fill-opacity: 0.4"></path><path d="M-214.42296058652713,-6.326975076363964L-180.04221287097027,-6.666077190155948" style="fill:none;stroke:rgb(0,0,0);stroke-width:1;stroke-linecap:round"></path><path d="M-180.04221287097027,-3.675122991380866L-214.42296058652713,-3.3360208775888816L-180.42048644960087,-3.9060588422743323zM-214.42296058652713,-3.3360208775888816L-214.80123416515772,-3.566956728482348L-180.42048644960087,-3.9060588422743323z" style="fill:rgb(91,60,255); fill-opacity: 0.4"></path><path d="M-218.17721945393887,21.11119280635629L-212.9732665542863,24.288203728560866L-212.9732665542863,-16.858695380255377z" style="fill:rgb(196,239,206); fill-opacity: 0.4"></path><path d="M-214.80123416515772,-6.557910927257429L-214.80123416515772,-3.566956728482347M-214.80123416515772,-3.566956728482347L-214.42296058652713,-3.3360208775888807" style="fill:none;stroke:rgb(0,0,0);stroke-width:1;stroke-linecap:round"></path><path d="M-214.42296058652713,-3.3360208775888816L-180.04221287097027,-3.675122991380866L-180.04221287097027,-6.666077190155948z" style="fill:rgb(91,60,255); fill-opacity: 0.4"></path><path d="M-214.80123416515772,-6.557910927257429L-214.42296058652713,-6.326975076363964" style="fill:none;stroke:rgb(0,0,0);stroke-width:1;stroke-linecap:round"></path><path d="M-212.9732665542863,-16.858695380255377L-178.59251883872946,-17.19779749404736L-218.17721945393887,-20.035706302459953z" style="fill:rgb(196,239,206); fill-opacity: 0.4"></path><path d="M-214.42296058652713,-6.326975076363964L-180.04221287097027,-6.666077190155948L-214.80123416515772,-6.5579109272574305z" style="fill:rgb(91,60,255); fill-opacity: 0.4"></path><path d="M-158.75214678721952,23.753413255785283L-124.37139907166262,23.4143111419933M-124.37139907166262,-17.73258796682294L-124.37139907166262,23.4143111419933" style="fill:none;stroke:rgb(0,0,0);stroke-width:1;stroke-linecap:round"></path><path d="M-214.80123416515772,-6.5579109272574305L-214.80123416515772,-3.566956728482348L-214.42296058652713,-6.326975076363964zM-214.42296058652713,-6.326975076363964L-214.42296058652713,-3.3360208775888816L-180.04221287097027,-6.666077190155948zM-214.80123416515772,-3.566956728482348L-214.42296058652713,-3.3360208775888816L-214.42296058652713,-6.326975076363964z" style="fill:rgb(91,60,255); fill-opacity: 0.4"></path><path d="M-214.42296058652713,-6.326975076363964L-214.42296058652713,-3.3360208775888807" style="fill:none;stroke:rgb(0,0,0);stroke-width:1;stroke-linecap:round"></path><path d="M-158.75214678721952,23.753413255785283L-124.37139907166262,23.4143111419933L-124.37139907166262,-17.73258796682294z" style="fill:rgb(196,239,206); fill-opacity: 0.4"></path><path d="M-158.75214678721952,-17.393485853030956L-124.37139907166262,-17.73258796682294M-158.75214678721952,-17.393485853030956L-158.75214678721952,23.753413255785283" style="fill:none;stroke:rgb(0,0,0);stroke-width:1;stroke-linecap:round"></path><path d="M-158.75214678721952,-17.393485853030956L-158.75214678721952,23.753413255785283L-124.37139907166262,-17.73258796682294z" style="fill:rgb(196,239,206); fill-opacity: 0.4"></path><path d="M-212.9732665542863,24.288203728560866L-178.59251883872946,23.94910161476888M-178.59251883872946,-17.19779749404736L-178.59251883872946,23.94910161476888" style="fill:none;stroke:rgb(0,0,0);stroke-width:1;stroke-linecap:round"></path><path d="M-212.9732665542863,24.288203728560866L-178.59251883872946,23.94910161476888L-178.59251883872946,-17.19779749404736z" style="fill:rgb(196,239,206); fill-opacity: 0.4"></path><path d="M-212.9732665542863,-16.858695380255377L-178.59251883872946,-17.19779749404736M-212.9732665542863,-16.858695380255377L-212.9732665542863,24.288203728560866" style="fill:none;stroke:rgb(0,0,0);stroke-width:1;stroke-linecap:round"></path><path d="M-212.9732665542863,-16.858695380255377L-212.9732665542863,24.288203728560866L-178.59251883872946,-17.19779749404736z" style="fill:rgb(196,239,206); fill-opacity: 0.4"></path></svg>